<?xml version="1.0" standalone="no"?>
<!DOCTYPE svg PUBLIC "-//W3C//DTD SVG 20010904//EN"
 "http://www.w3.org/TR/2001/REC-SVG-20010904/DTD/svg10.dtd">
<svg version="1.0" xmlns="http://www.w3.org/2000/svg"
 width="640.000000pt" height="1280.000000pt" viewBox="0 0 640.000000 1280.000000"
 preserveAspectRatio="xMidYMid meet">
<metadata>
Created by potrace 1.15, written by Peter Selinger 2001-2017
</metadata>
<g transform="translate(0.000000,1280.000000) scale(0.100000,-0.100000)"
fill="#000000" stroke="none">
<path d="M1975 12598 c-264 -805 -471 -1740 -559 -2528 -56 -492 -70 -764 -70
-1300 -1 -604 19 -917 95 -1504 80 -619 150 -973 448 -2256 154 -666 219
-1022 268 -1470 25 -233 25 -904 0 -1130 -53 -467 -158 -969 -298 -1420 -16
-52 -29 -100 -29 -106 0 -13 87 -47 100 -39 4 2 17 39 30 82 12 43 23 79 25
80 1 3 96 -27 102 -31 1 -1 -9 -37 -22 -79 -14 -43 -25 -81 -25 -86 0 -7 140
-54 146 -48 5 5 104 359 104 373 0 8 4 14 10 14 10 0 198 -44 853 -199 163
-39 429 -102 590 -140 160 -39 371 -88 467 -111 96 -23 182 -43 192 -46 14 -4
13 -18 -17 -132 -18 -70 -52 -192 -75 -271 -22 -79 -39 -145 -37 -147 9 -9 97
-31 101 -25 2 3 13 42 24 85 11 43 22 79 24 81 7 8 92 -22 96 -33 2 -6 -6 -44
-17 -85 -12 -40 -21 -78 -21 -83 0 -5 19 -15 43 -21 23 -7 49 -14 58 -18 12
-5 19 6 31 47 263 902 364 1438 430 2288 16 217 17 969 0 1205 -32 447 -85
871 -168 1340 -63 355 -102 538 -329 1540 -213 942 -281 1342 -320 1895 -71
1012 94 2096 512 3374 30 92 51 171 46 176 -7 6 -335 120 -347 120 -2 0 -12
-22 -21 -49 l-16 -49 -1031 344 c-567 189 -1032 345 -1034 347 -2 2 3 25 12
51 9 27 13 51 8 55 -9 8 -101 41 -115 41 -4 0 -10 -11 -13 -24 l-6 -24 -51 16
c-47 15 -50 18 -45 43 5 24 1 29 -35 43 -22 9 -41 16 -44 16 -2 0 -34 -91 -70
-202z m173 -7 l39 -11 -28 -102 c-16 -56 -30 -103 -32 -105 -2 -1 -26 4 -54
12 l-51 15 31 105 c21 73 34 104 43 101 7 -3 30 -10 52 -15z m-93 -313 c33 -9
44 -16 41 -28 -3 -8 -15 -53 -27 -100 -12 -47 -24 -87 -25 -89 -4 -5 -104 20
-104 26 0 21 55 203 61 203 5 0 29 -5 54 -12z m460 -298 c165 -50 415 -127
555 -170 140 -43 464 -142 720 -220 256 -78 466 -143 468 -145 2 -1 -20 -85
-47 -186 -65 -237 -131 -510 -175 -724 -37 -182 -106 -582 -106 -618 -1 -53
44 -59 -1071 138 -579 102 -1056 188 -1058 191 -13 13 75 547 148 899 58 278
100 454 170 720 62 231 57 218 78 211 10 -3 153 -46 318 -96z m-534 -20 l37
-10 -26 -103 c-14 -56 -26 -103 -27 -105 -3 -3 -97 19 -103 23 -3 3 8 49 39
168 11 40 20 44 80 27z m2617 -140 l39 -12 -29 -92 c-16 -50 -31 -96 -33 -103
-3 -9 -16 -8 -52 4 -26 9 -50 17 -51 19 -2 1 11 48 29 103 21 64 38 100 45 97
7 -3 30 -10 52 -16z m-2704 -176 c20 -3 38 -9 40 -13 4 -5 -8 -64 -39 -187 -4
-20 -8 -21 -55 -11 -27 5 -50 15 -50 21 0 6 10 55 22 109 15 68 25 96 34 93 7
-3 29 -8 48 -12z m2643 -148 c3 -2 -54 -197 -59 -201 -8 -8 -98 19 -98 30 0
12 50 186 56 197 3 5 88 -17 101 -26z m-2706 -172 c30 -5 38 -11 35 -23 -3 -9
-12 -54 -21 -101 -10 -47 -19 -88 -21 -91 -3 -6 -94 9 -102 16 -2 2 6 51 19
110 17 81 26 105 37 100 7 -3 31 -8 53 -11z m2574 -126 c33 -9 44 -16 40 -28
-2 -8 -14 -54 -26 -102 -23 -96 -24 -96 -92 -77 -29 8 -37 14 -33 27 3 9 15
56 27 105 12 48 25 87 30 87 5 0 29 -5 54 -12z m-2605 -213 c0 -15 -29 -175
-35 -191 -2 -8 -17 -9 -51 -3 -26 5 -49 11 -51 13 -4 4 23 174 32 202 5 16
105 -4 105 -21z m2531 -107 c29 -8 38 -16 34 -27 -2 -9 -13 -54 -24 -100 -11
-46 -22 -85 -24 -87 -10 -10 -106 18 -102 29 2 7 14 54 25 105 24 100 24 101
91 80z m-2590 -203 c3 -2 -2 -50 -11 -107 l-16 -103 -45 3 c-24 2 -48 8 -53
12 -5 5 -3 44 4 92 18 127 15 121 68 113 26 -4 50 -9 53 -10z m2520 -115 l35
-10 -21 -102 c-13 -62 -26 -103 -33 -102 -7 1 -24 2 -39 3 -53 3 -57 12 -44
83 29 148 29 148 102 128z m-2575 -205 c8 -2 7 -29 -2 -97 -7 -51 -13 -99 -14
-106 0 -11 -12 -12 -52 -7 -29 4 -54 8 -56 10 -2 2 15 144 24 187 5 26 8 28
47 22 23 -3 47 -7 53 -9z m2543 -121 c2 -2 -4 -48 -13 -102 -9 -54 -16 -101
-16 -105 0 -8 -92 3 -102 12 -7 6 15 164 27 199 4 10 17 11 52 6 27 -3 50 -8
52 -10z m-2600 -201 c23 -6 23 -8 16 -87 -10 -124 -11 -126 -55 -126 -67 0
-67 0 -57 103 4 50 10 98 12 105 5 13 45 16 84 5z m2506 -113 c43 -1 45 -9 32
-115 l-13 -100 -49 3 c-27 1 -51 4 -53 7 -3 3 1 52 8 111 12 99 14 105 34 100
12 -3 30 -6 41 -6z m-2547 -210 l33 0 -7 -102 c-3 -57 -10 -107 -14 -111 -4
-4 -29 -5 -56 -2 l-49 7 7 76 c3 43 7 92 7 111 1 30 4 33 24 27 12 -3 37 -6
55 -6z m1240 -206 l1042 -119 -7 -145 c-14 -255 -8 -796 11 -1035 10 -121 19
-224 20 -230 0 -5 -128 -17 -319 -28 -1155 -66 -1830 -104 -1833 -102 -1 1 -9
94 -17 206 -31 412 -30 1182 2 1512 6 67 7 69 32 64 14 -3 495 -58 1069 -123z
m1275 89 l38 -6 -6 -66 c-3 -36 -8 -84 -11 -106 l-5 -41 -52 6 c-44 4 -52 8
-50 25 16 220 8 201 86 188z m-2509 -220 c-1 -7 -2 -56 -2 -108 l-2 -95 -55 0
-55 0 0 73 c0 39 3 89 6 110 l7 38 51 -3 c33 -2 51 -7 50 -15z m2516 -175 c0
-40 -3 -90 -6 -111 l-7 -38 -51 3 c-46 3 -51 5 -50 26 0 12 1 60 2 107 l2 85
55 0 55 0 0 -72z m-2530 -248 l0 -110 -55 0 -55 0 0 110 0 110 55 0 55 0 0
-110z m2488 -10 l32 0 0 -105 0 -105 -55 0 -55 0 0 111 c0 111 0 111 23 105
12 -3 37 -6 55 -6z m-2488 -315 l0 -105 -39 0 c-22 0 -46 -3 -55 -6 -14 -5
-16 8 -16 105 l0 111 55 0 55 0 0 -105z m2520 -84 c0 -43 3 -93 6 -110 l7 -31
-55 0 -55 0 -7 38 c-3 20 -6 70 -6 110 l0 72 55 0 55 0 0 -79z m-2520 -203 c0
-40 3 -90 6 -110 l7 -38 -55 0 -55 0 -7 46 c-3 26 -6 75 -6 110 l0 64 55 0 55
0 0 -72z m2534 -90 c3 -24 7 -71 10 -104 l5 -62 -31 -6 c-67 -13 -75 -9 -82
37 -5 36 -9 147 -7 170 1 4 23 7 50 7 l50 0 5 -42z m-2520 -210 c3 -24 7 -71
10 -105 4 -68 0 -73 -70 -73 -28 0 -32 4 -37 33 -5 27 -10 154 -8 180 1 4 23
7 50 7 l50 0 5 -42z m2549 -105 c3 -21 9 -71 13 -110 l7 -73 -42 -1 c-22 -1
-47 -2 -53 -3 -8 -1 -15 21 -20 59 -4 33 -10 81 -13 107 -5 45 -5 47 22 51 75
11 80 9 86 -30z m-2516 -275 c5 -57 6 -106 3 -109 -3 -4 -26 -9 -51 -12 -47
-6 -47 -6 -52 26 -3 18 -9 67 -13 109 l-6 77 33 4 c83 10 76 18 86 -95z m2553
-14 c0 -4 7 -51 16 -106 9 -55 14 -101 12 -103 -2 -1 -26 -6 -54 -10 l-50 -6
-16 103 c-9 57 -14 105 -12 107 4 4 66 18 92 20 6 0 12 -2 12 -5z m-215 -176
c2 -13 16 -90 31 -173 48 -281 124 -644 260 -1238 15 -67 23 -122 18 -127 -5
-4 -137 -37 -294 -73 -157 -36 -598 -138 -980 -227 -382 -89 -726 -168 -763
-177 -37 -8 -70 -13 -73 -10 -10 10 -118 489 -189 837 -73 359 -173 955 -163
966 4 4 2063 239 2130 243 11 1 20 -8 23 -21z m-2315 -50 c1 -7 7 -54 14 -105
l13 -91 -30 -6 c-56 -11 -76 -7 -81 17 -11 49 -24 182 -20 189 9 14 104 9 104
-4z m2580 -91 c0 -1 9 -49 20 -106 11 -58 19 -105 17 -106 -1 -1 -24 -6 -50
-12 -57 -12 -51 -21 -76 107 l-18 95 46 12 c51 12 61 14 61 10z m-2537 -234
c3 -10 11 -56 17 -102 14 -93 11 -101 -47 -101 -18 0 -36 -1 -40 -2 -8 -3 -31
126 -32 179 -1 25 4 32 22 36 52 10 76 7 80 -10z m2622 -190 c10 -51 18 -96
18 -100 0 -5 -23 -13 -51 -19 l-50 -11 -16 71 c-9 39 -19 87 -22 107 l-6 36
48 10 c27 5 52 7 55 4 4 -3 14 -48 24 -98z m-2553 -218 c10 -54 14 -102 10
-106 -4 -4 -28 -10 -53 -13 l-46 -7 -16 94 c-23 125 -23 125 16 130 71 9 70
11 89 -98z m2607 -32 c23 -87 39 -168 35 -173 -9 -8 -95 -27 -98 -21 -6 9 -46
181 -46 195 0 11 42 26 92 35 4 0 12 -16 17 -36z m-2565 -200 c17 -61 36 -187
29 -193 -4 -5 -28 -11 -53 -15 l-45 -6 -20 105 -20 106 40 9 c59 13 63 13 69
-6z m2657 -187 l26 -105 -49 -11 c-27 -7 -52 -10 -55 -6 -6 6 -54 198 -50 202
4 4 72 22 87 23 12 1 22 -26 41 -103z m-2572 -218 c22 -103 20 -117 -15 -118
-6 0 -25 -3 -41 -6 l-29 -6 -18 84 c-10 45 -20 93 -23 104 -4 18 2 23 34 32
71 19 68 21 92 -90z m2648 -93 c12 -49 23 -95 23 -102 0 -10 -98 -40 -104 -32
-3 5 -46 192 -46 201 0 10 60 27 84 25 16 -2 24 -19 43 -92z m-2578 -226 c18
-79 20 -103 11 -109 -13 -8 -91 -23 -94 -18 -7 11 -45 202 -41 206 5 5 64 20
86 21 12 1 21 -23 38 -100z m2652 -86 c12 -54 24 -103 26 -109 2 -7 -18 -15
-49 -22 -29 -5 -54 -9 -55 -8 -1 1 -13 48 -26 104 l-24 102 41 11 c35 8 54 14
63 18 1 1 11 -43 24 -96z m-2582 -222 c12 -49 21 -95 21 -104 0 -21 -90 -43
-101 -25 -5 7 -9 18 -9 23 0 6 -9 47 -19 92 l-19 83 32 9 c71 21 72 19 95 -78z
m2655 -101 c10 -47 20 -92 22 -101 3 -13 -7 -19 -48 -27 -29 -5 -54 -9 -55 -8
-3 3 -43 189 -43 202 0 12 91 35 101 25 3 -3 14 -44 23 -91z m-215 -250 c103
-521 188 -1118 203 -1420 l2 -55 -39 -3 c-165 -12 -2029 -173 -2062 -177 -49
-7 -43 -27 -68 220 -30 296 -94 676 -184 1095 -22 101 -38 186 -36 188 2 2
228 47 502 99 274 52 752 143 1063 202 311 59 566 107 567 107 1 -1 24 -116
52 -256z m-2368 33 c11 -48 22 -95 25 -104 3 -13 -4 -18 -33 -23 -21 -4 -45
-9 -54 -12 -13 -4 -21 14 -39 93 -12 54 -23 102 -24 107 -1 8 94 36 102 30 2
-1 13 -42 23 -91z m2649 -107 c11 -54 20 -102 20 -106 0 -13 -101 -29 -106
-16 -6 18 -34 169 -34 187 0 12 14 20 48 26 26 5 48 9 49 8 2 -1 12 -45 23
-99z m-2576 -220 c23 -114 24 -113 -31 -124 -26 -6 -49 -9 -50 -8 -5 5 -43
180 -43 197 0 19 91 41 101 24 4 -5 14 -45 23 -89z m2621 -28 c2 -13 11 -60
18 -106 14 -81 14 -82 -7 -87 -43 -8 -86 -14 -86 -12 0 1 -7 40 -15 87 -21
120 -20 128 13 133 62 9 72 7 77 -15z m-2575 -202 c0 -4 27 -141 35 -183 4
-19 0 -23 -32 -28 -21 -4 -45 -9 -54 -11 -13 -4 -20 12 -33 83 -25 125 -25
126 4 134 28 8 80 11 80 5z m2638 -204 c8 -57 12 -105 10 -107 -2 -1 -26 -6
-54 -10 l-50 -6 -12 89 c-18 132 -18 130 26 135 68 7 65 10 80 -101z m-2578
-119 c0 -5 7 -50 15 -102 9 -52 12 -98 8 -101 -4 -4 -29 -10 -54 -13 l-46 -6
-12 82 c-7 45 -15 94 -18 109 -5 24 -2 27 28 31 61 7 79 7 79 0z m2610 -130
c0 -16 3 -65 7 -110 l6 -83 -55 0 -55 0 -7 102 c-8 115 -7 118 62 118 39 0 42
-2 42 -27z m-2550 -289 c6 -58 10 -107 8 -109 -2 -2 -26 -7 -55 -11 l-51 -6
-8 88 c-13 136 -15 128 36 135 25 3 48 7 51 7 3 1 12 -46 19 -104z m2582 -131
l5 -91 -49 -7 c-27 -4 -52 -4 -55 -1 -4 3 -8 53 -11 110 l-5 105 49 3 c59 4
60 3 66 -119z m-2557 -105 c2 -7 6 -57 10 -110 l6 -98 -54 0 -54 0 -6 68 c-12
121 -10 140 16 145 45 9 78 7 82 -5z m2565 -162 c0 -35 3 -84 6 -110 l7 -46
-57 0 -56 0 0 38 c0 20 -3 67 -6 104 -7 74 -7 75 69 77 l37 1 0 -64z m-2540
-266 l0 -110 -55 0 -55 0 0 110 0 110 55 0 55 0 0 -110z m2550 -79 c0 -43 -3
-93 -6 -110 -6 -30 -9 -31 -55 -31 l-49 0 0 110 0 110 55 0 55 0 0 -79z m-243
-363 c-9 -380 -32 -680 -83 -1043 -22 -158 -73 -467 -77 -472 -1 -1 -218 36
-482 82 -264 46 -743 129 -1065 185 -321 56 -587 103 -589 106 -3 2 8 69 23
147 67 357 105 704 115 1047 l6 235 595 5 c327 3 813 6 1079 8 l484 2 -6 -302z
m-2307 111 c0 -111 0 -111 -22 -105 -13 3 -38 6 -55 6 l-33 0 0 105 0 105 55
0 55 0 0 -111z m2537 -105 c-3 -59 -8 -108 -10 -111 -3 -2 -28 -1 -57 3 l-52
7 6 36 c3 20 6 66 6 104 l0 67 57 0 56 0 -6 -106z m-2558 -113 c11 -7 12 -28
7 -107 -4 -54 -9 -101 -11 -104 -2 -3 -27 -3 -55 -1 l-53 3 7 61 c3 33 6 82 6
108 l0 49 43 0 c23 0 48 -4 56 -9z m2519 -107 c25 -7 27 -26 15 -146 l-6 -68
-54 0 -55 0 7 103 c4 56 9 105 12 110 5 8 49 9 81 1z m-2536 -249 c-7 -70 -23
-179 -27 -183 -2 -2 -27 -1 -55 3 -49 7 -51 8 -46 34 3 14 8 51 11 81 12 111
9 106 68 100 51 -5 52 -6 49 -35z m2530 -115 c-8 -85 -21 -172 -26 -177 -2 -3
-28 -2 -56 2 -41 6 -50 10 -46 23 3 10 8 49 11 87 10 117 7 111 67 105 l53 -5
-3 -35z m-2576 -183 c5 -5 -20 -171 -31 -203 -3 -9 -17 -9 -52 -2 -26 6 -49
11 -51 13 -1 1 5 48 14 105 l17 102 49 -4 c27 -3 51 -8 54 -11z m2540 -110 c2
-2 -28 -211 -30 -214 -2 -2 -99 17 -103 21 -3 3 7 79 23 175 l5 33 52 -6 c28
-4 52 -8 53 -9z m-2597 -213 c1 -1 -7 -50 -20 -108 -19 -84 -27 -105 -39 -101
-8 2 -32 7 -52 11 -21 3 -38 8 -38 10 0 7 40 188 45 200 2 9 17 9 52 2 26 -6
50 -12 52 -14z m2548 -108 c1 -1 -6 -49 -15 -106 l-18 -105 -40 3 c-74 5 -71
-7 -43 160 l11 62 52 -6 c28 -4 52 -7 53 -8z m-2640 -207 c21 -8 22 -10 8 -56
-7 -26 -20 -73 -29 -105 l-16 -56 -47 14 c-25 8 -48 16 -50 18 -3 2 8 49 23
105 l27 100 31 -6 c17 -3 41 -10 53 -14z m2566 -115 c21 -6 21 -5 2 -96 -27
-131 -21 -121 -63 -113 -73 12 -70 3 -47 121 l20 105 35 -6 c19 -3 43 -8 53
-11z m-95 -315 l50 -10 -20 -87 c-25 -115 -27 -122 -41 -122 -31 0 -87 22 -87
35 0 19 41 195 45 195 2 0 26 -5 53 -11z m-64 -320 l42 -10 -24 -102 c-14 -56
-26 -104 -28 -106 -4 -4 -104 20 -104 25 0 5 40 173 46 192 4 15 13 15 68 1z"/>
</g>
</svg>
