<?xml version="1.0" encoding="UTF-8" standalone="no"?>
<!-- Created with Inkscape (http://www.inkscape.org/) -->

<svg
   version="1.1"
   id="svg67"
   width="472"
   height="420"
   viewBox="0 0 472 420"
   sodipodi:docname="camara2.svg"
   inkscape:version="1.1.1 (3bf5ae0d25, 2021-09-20)"
   xmlns:inkscape="http://www.inkscape.org/namespaces/inkscape"
   xmlns:sodipodi="http://sodipodi.sourceforge.net/DTD/sodipodi-0.dtd"
   xmlns="http://www.w3.org/2000/svg"
   xmlns:svg="http://www.w3.org/2000/svg">
  <defs
     id="defs71" />
  <sodipodi:namedview
     id="namedview69"
     pagecolor="#ffffff"
     bordercolor="#666666"
     borderopacity="1.0"
     inkscape:pageshadow="2"
     inkscape:pageopacity="0.0"
     inkscape:pagecheckerboard="0"
     showgrid="false"
     inkscape:zoom="1.1119048"
     inkscape:cx="236.08137"
     inkscape:cy="210"
     inkscape:window-width="1024"
     inkscape:window-height="709"
     inkscape:window-x="0"
     inkscape:window-y="0"
     inkscape:window-maximized="1"
     inkscape:current-layer="layer2" />
  <g
     inkscape:groupmode="layer"
     id="layer2"
     inkscape:label="color"
     style="display:inline">
    <g
       id="g402"
       style="display:inline">
      <path
         style="fill:#d0d0d0;fill-opacity:1;stroke-width:1.33333"
         d="m 128,366.14265 c 0,-0.28821 0.93116,-0.88133 2.06925,-1.31806 1.18657,-0.45532 1.72176,-0.2318 1.25464,0.52401 C 130.54088,366.61555 128,367.22253 128,366.14265 Z m 104.53999,-35.80932 -2.53999,-3 3,2.53999 c 2.81925,2.38696 3.60699,3.46001 2.53999,3.46001 -0.25302,0 -1.60302,-1.35 -3,-3 z M 176.25993,326 c 0.0272,-2.2 0.326,-2.93859 0.66406,-1.64129 0.33805,1.29729 0.31582,3.09729 -0.0495,4 -0.36524,0.9027 -0.64183,-0.15871 -0.61465,-2.35871 z m -10.29296,-20.72011 c -0.56216,-0.90958 0.44307,-1.07445 2.92131,-0.4791 5.10855,1.22722 5.59207,1.86588 1.41263,1.86588 -1.91227,0 -3.86255,-0.62406 -4.33394,-1.38678 z m 19.11636,-0.85737 c 0.9625,-0.38516 2.1125,-0.3378 2.55556,0.1052 0.44306,0.44305 -0.34445,0.75819 -1.75,0.70029 -1.55326,-0.064 -1.8692,-0.37992 -0.80556,-0.80554 z M 191,304.41452 c 1.28333,-0.33536 3.38333,-0.33536 4.66667,0 1.28333,0.33537 0.23333,0.60977 -2.33334,0.60977 -2.56666,0 -3.61666,-0.2744 -2.33333,-0.60977 z m 20.66667,-1.3552 c 1.65,-0.31781 4.35,-0.31781 6,0 1.65,0.3178 0.3,0.57783 -3,0.57783 -3.3,0 -4.65,-0.26003 -3,-0.57783 z M 235.04801,294 c 0.0107,-3.66667 0.26896,-5.00841 0.57543,-2.98167 0.30648,2.02675 0.29828,5.02675 -0.0181,6.66667 -0.31648,1.63992 -0.56723,-0.0183 -0.55723,-3.685 z m 7.72392,-0.11107 c 0.064,-1.55326 0.37992,-1.8692 0.80555,-0.80556 0.38516,0.9625 0.3378,2.1125 -0.1052,2.55556 -0.44307,0.44306 -0.75819,-0.34445 -0.70029,-1.75 z m -12.83466,-9.55732 c 2.89882,-3.11569 5.44882,-5.6649 5.66666,-5.6649 0.21784,0 0.39607,1 0.39607,2.22222 0,1.22222 -0.41055,1.81167 -0.91233,1.30988 -0.50179,-0.50178 -3.05179,1.04743 -5.66667,3.4427 -4.39971,4.03017 -4.3612,3.93248 0.51627,-1.3099 z M 137.685,276.3766 c 2.02675,-0.30648 5.02675,-0.29828 6.66667,0.0181 1.63992,0.31648 -0.0184,0.56723 -3.685,0.55723 -3.66667,-0.0106 -5.00842,-0.26893 -2.98167,-0.5754 z m 16.64833,-1.2596 c 0.91667,-0.36988 2.41667,-0.36988 3.33334,0 0.91666,0.36988 0.16666,0.67252 -1.66667,0.67252 -1.83333,0 -2.58333,-0.30264 -1.66667,-0.67252 z m -28.89473,-2.5614 c 0.064,-1.55327 0.37992,-1.8692 0.80555,-0.80556 0.38516,0.96249 0.33779,2.11249 -0.10526,2.55556 -0.44306,0.44305 -0.75819,-0.34445 -0.7003,-1.75 z m 42.92011,1.18712 c 1.29729,-0.33805 3.09729,-0.31583 4,0.0495 0.9027,0.36524 -0.15871,0.64182 -2.35871,0.61465 -2.2,-0.0272 -2.93859,-0.326 -1.64129,-0.66405 z m 11.30796,-1.35032 c 1.65,-0.31781 4.35,-0.31781 6,0 1.65,0.3178 0.3,0.57783 -3,0.57783 -3.3,0 -4.65,-0.26003 -3,-0.57783 z m 20.66666,-1.31147 c 1.28334,-0.33536 3.38334,-0.33536 4.66667,0 1.28333,0.33538 0.23333,0.60978 -2.33333,0.60978 -2.56667,0 -3.61667,-0.2744 -2.33334,-0.60978 z m 68.62206,-18.7476 c -0.29443,-0.55 -0.0791,-2.5 0.47853,-4.33333 0.91697,-3.01481 0.99721,-2.91925 0.83969,1 -0.17993,4.47684 -0.40348,5.04211 -1.31822,3.33333 z m -147.51679,-5.1111 c 0.064,-1.55327 0.37992,-1.8692 0.80555,-0.80556 0.38516,0.96249 0.33779,2.11249 -0.10526,2.55556 -0.44306,0.44305 -0.75819,-0.34446 -0.7003,-1.75 z m -94.408781,-4.55556 c 0,-3.3 0.260021,-4.65 0.577825,-3 0.317804,1.65 0.317804,4.35 0,6 -0.317804,1.65 -0.577825,0.3 -0.577825,-3 z m 241.180701,-8 c 0,-1.83334 0.30264,-2.58334 0.67252,-1.66667 0.36988,0.91667 0.36988,2.41667 0,3.33333 -0.36988,0.91667 -0.67252,0.16667 -0.67252,-1.66666 z m 33.33333,0 c 0,-1.83334 0.30264,-2.58334 0.67252,-1.66667 0.36988,0.91667 0.36988,2.41667 0,3.33333 -0.36988,0.91667 -0.67252,0.16667 -0.67252,-1.66666 z m 5.48152,-3.59066 c 1.2973,-0.33805 3.0973,-0.31582 4,0.0495 0.90271,0.36524 -0.1587,0.64183 -2.3587,0.61465 -2.2,-0.0272 -2.93859,-0.326 -1.6413,-0.66405 z M 118.9266,227.33333 c 0.0272,-2.2 0.326,-2.93858 0.66405,-1.64129 0.33806,1.29729 0.31583,3.09729 -0.0494,4 -0.36523,0.90271 -0.64182,-0.15871 -0.61465,-2.35871 z M 267.09343,216 c 0,-4.76667 0.242,-6.71667 0.53777,-4.33333 0.29576,2.38333 0.29576,6.28333 0,8.66666 -0.29577,2.38334 -0.53777,0.43334 -0.53777,-4.33333 z m -86.0101,5.75585 c 0.9625,-0.38516 2.1125,-0.3378 2.55556,0.1052 0.44306,0.44306 -0.34445,0.75819 -1.75,0.7003 -1.55326,-0.064 -1.8692,-0.37992 -0.80556,-0.80555 z m 107.93947,-4.6005 c -0.33725,-2.2979 -0.19189,-6.0479 0.32303,-8.33334 0.72397,-3.21328 0.96406,-2.26609 1.05898,4.17799 0.13364,9.07196 -0.41728,10.72845 -1.38201,4.15535 z m -171.47894,0.17798 c 0,-1.83333 0.30263,-2.58333 0.67251,-1.66666 0.36989,0.91666 0.36989,2.41666 0,3.33333 -0.36988,0.91667 -0.67251,0.16667 -0.67251,-1.66667 z m 78.20614,1.75586 c 0.96249,-0.38516 2.11249,-0.3378 2.55556,0.1052 0.44305,0.44305 -0.34445,0.75818 -1.75,0.70029 -1.55327,-0.064 -1.8692,-0.37992 -0.80556,-0.80555 z m 127.02193,-2.53363 c 0.064,-1.55327 0.37992,-1.8692 0.80555,-0.80556 0.38516,0.96249 0.3378,2.11249 -0.1052,2.55556 -0.44307,0.44305 -0.75819,-0.34445 -0.70029,-1.75 z m -104.35526,-1.46637 c 0.96249,-0.38516 2.11249,-0.3378 2.55556,0.1052 0.44305,0.44305 -0.34446,0.75818 -1.75,0.70029 -1.55327,-0.064 -1.8692,-0.37992 -0.80556,-0.80555 z m 30.25,-4.42252 c -2.17388,-0.93415 -2.25002,-1.16323 -0.41203,-1.23962 1.24005,-0.0516 2.62547,0.50628 3.07869,1.23962 0.94755,1.53317 0.90122,1.53317 -2.66666,0 z m -132.40674,-7.33334 c 0.0272,-2.2 0.326,-2.93858 0.66406,-1.64129 0.33806,1.29729 0.31582,3.09729 -0.0494,4 -0.36524,0.90271 -0.64183,-0.15871 -0.61466,-2.35871 z m 170.512,-0.11106 c 0.064,-1.55327 0.37992,-1.8692 0.80555,-0.80556 0.38516,0.96249 0.3378,2.11249 -0.1052,2.55556 -0.44307,0.44305 -0.75819,-0.34446 -0.70029,-1.75 z m -21.07545,-5.88894 c 0,-3.3 0.26003,-4.65 0.57783,-3 0.31781,1.65 0.31781,4.35 0,6 -0.3178,1.65 -0.57783,0.3 -0.57783,-3 z m -150.81929,-6.66666 c 0,-1.83334 0.30263,-2.58334 0.67252,-1.66667 0.36988,0.91667 0.36988,2.41667 0,3.33333 -0.36989,0.91667 -0.67252,0.16667 -0.67252,-1.66666 z m 149.48596,-12 c 0,-3.3 0.26002,-4.65 0.57782,-3 0.31782,1.65 0.31782,4.35 0,6 -0.3178,1.65 -0.57782,0.3 -0.57782,-3 z m 24.10273,-8 c 0,-6.23334 0.22968,-8.78334 0.5104,-5.66667 0.28071,3.11667 0.28071,8.21667 0,11.33333 -0.28072,3.11667 -0.5104,0.56667 -0.5104,-5.66666 z m -112.79921,5.78362 c 0.91666,-0.36988 2.41666,-0.36988 3.33333,0 0.91667,0.36988 0.16667,0.67252 -1.66667,0.67252 -1.83333,0 -2.58333,-0.30264 -1.66666,-0.67252 z m 16,-1.33333 c 0.91666,-0.36988 2.41666,-0.36988 3.33333,0 0.91667,0.36988 0.16667,0.67252 -1.66667,0.67252 -1.83333,0 -2.58333,-0.30264 -1.66666,-0.67252 z m 91.10526,-1.22807 c 0.064,-1.55326 0.37992,-1.8692 0.80555,-0.80556 0.38516,0.9625 0.3378,2.1125 -0.1052,2.55556 -0.44307,0.44306 -0.75819,-0.34445 -0.70029,-1.75 z M 205,173.78356 c 0.91667,-0.36988 2.41667,-0.36988 3.33333,0 0.91667,0.36988 0.16667,0.67252 -1.66666,0.67252 -1.83334,0 -2.58334,-0.30264 -1.66667,-0.67252 z m 13.66667,-0.96139 c 0,-0.28113 1.20082,-0.82517 2.6685,-1.20898 1.46768,-0.3838 2.33227,-0.15379 1.92131,0.51116 -0.71767,1.16121 -4.58981,1.74992 -4.58981,0.69782 z M 321.64267,164 c 0,-2.56667 0.2744,-3.61667 0.60977,-2.33333 0.33536,1.28333 0.33536,3.38333 0,4.66666 -0.33537,1.28334 -0.60977,0.23334 -0.60977,-2.33333 z m -58.71607,-0.66667 c 0.0272,-2.2 0.326,-2.93858 0.66405,-1.64129 0.33806,1.29729 0.31583,3.09729 -0.0495,4 -0.36524,0.90271 -0.64183,-0.15871 -0.61466,-2.35871 z m 74.71607,-2 c 0,-2.56666 0.2744,-3.61666 0.60977,-2.33333 0.33536,1.28333 0.33536,3.38333 0,4.66667 -0.33537,1.28333 -0.60977,0.23333 -0.60977,-2.33334 z m -225.64267,-2 c 0,-1.1 0.58117,-2 1.29149,-2 0.71032,0 0.94612,0.9 0.52401,2 -0.42211,1.1 -1.00328,2 -1.29149,2 -0.2882,0 -0.52401,-0.9 -0.52401,-2 z M 296.25993,158 c 0.0272,-2.2 0.326,-2.93859 0.66406,-1.64129 0.33805,1.29729 0.31582,3.09729 -0.0495,4 -0.36524,0.9027 -0.64183,-0.15871 -0.61465,-2.35871 z m -21.84326,1.08919 c 0.96249,-0.38516 2.11249,-0.3378 2.55556,0.1052 0.44305,0.44306 -0.34446,0.75818 -1.75,0.70029 -1.55327,-0.064 -1.8692,-0.37992 -0.80556,-0.80555 z M 91.75,157.75585 c 0.9625,-0.38516 2.1125,-0.3378 2.555556,0.1052 0.443055,0.44307 -0.344445,0.75819 -1.75,0.7003 -1.553257,-0.064 -1.8692,-0.37992 -0.805556,-0.80555 z m 171.02193,-1.20029 c 0.064,-1.55327 0.37992,-1.8692 0.80555,-0.80556 0.38516,0.96249 0.3378,2.11249 -0.1052,2.55556 -0.44307,0.44305 -0.75819,-0.34445 -0.70029,-1.75 z m 9.33334,-8 c 0.064,-1.55327 0.37992,-1.8692 0.80554,-0.80556 0.38516,0.96249 0.3378,2.11249 -0.1052,2.55556 -0.44306,0.44305 -0.75818,-0.34445 -0.70029,-1.75 z m -10.98062,-5.22223 c -0.26246,-3.3 -0.0229,-6 0.5324,-6 0.5553,0 1.00962,2.7 1.00962,6 0,3.3 -0.23959,6 -0.53242,6 -0.29281,0 -0.74714,-2.7 -1.0096,-6 z M 336.36315,144 c 0,-3.3 0.26002,-4.65 0.57782,-3 0.31782,1.65 0.31782,4.35 0,6 -0.3178,1.65 -0.57782,0.3 -0.57782,-3 z m -167.73247,2.60844 c -0.43344,-0.70131 0.44735,-1.27511 1.95729,-1.27511 3.21943,0 3.54422,0.74148 0.78807,1.79912 -1.07652,0.4131 -2.31193,0.1773 -2.74536,-0.52401 z m 15.72803,-2.19909 c 1.29729,-0.33806 3.09729,-0.31583 4,0.0493 0.9027,0.36524 -0.15871,0.64183 -2.35871,0.61465 -2.2,-0.0272 -2.93859,-0.326 -1.64129,-0.66405 z M 201,143.11696 c 0.91667,-0.36988 2.41667,-0.36988 3.33333,0 0.91667,0.36988 0.16667,0.67252 -1.66666,0.67252 -1.83334,0 -2.58334,-0.30264 -1.66667,-0.67252 z m 13.33333,-1.33333 c 0.91667,-0.36988 2.41667,-0.36988 3.33334,0 0.91666,0.36988 0.16666,0.67252 -1.66667,0.67252 -1.83333,0 -2.58333,-0.30264 -1.66667,-0.67252 z m 16.01555,-1.39331 c 1.65855,-0.31892 4.05855,-0.30681 5.33333,0.0269 1.27479,0.33372 -0.0823,0.59467 -3.01554,0.57987 -2.93334,-0.0148 -3.97634,-0.28785 -2.31779,-0.60677 z M 46.565752,136.33333 43.333333,132.66667 47,135.89908 c 2.016667,1.77784 3.666667,3.42784 3.666667,3.66667 0,1.0457 -1.079732,0.19464 -4.100915,-3.23242 z m 199.850918,2.75586 c 0.96249,-0.38516 2.11249,-0.3378 2.55556,0.1052 0.44305,0.44306 -0.34446,0.75818 -1.75,0.70029 -1.55327,-0.064 -1.8692,-0.37992 -0.80556,-0.80555 z m 86.25,-1.75586 c 1.32732,-1.46666 2.7133,-2.66666 3.07997,-2.66666 0.36667,0 -0.41932,1.2 -1.74664,2.66666 C 332.67268,138.8 331.28669,140 330.92003,140 c -0.36667,0 0.41932,-1.2 1.74664,-2.66667 z M 82.416667,136.42252 c 0.9625,-0.38516 2.1125,-0.3378 2.555556,0.1052 0.443054,0.44307 -0.344446,0.75819 -1.75,0.70029 -1.553258,-0.064 -1.8692,-0.37992 -0.805556,-0.80554 z m 240.250003,0.4074 c 0,-0.27687 1.05,-1.32687 2.33333,-2.33333 2.11475,-1.65849 2.16191,-1.61133 0.50341,0.50341 -1.74182,2.221 -2.83674,2.92731 -2.83674,1.82992 z M 175.82992,116.33333 c -1.65849,-2.11474 -1.61133,-2.1619 0.50341,-0.5034 2.221,1.74182 2.92731,2.83674 1.82992,2.83674 -0.27686,0 -1.32686,-1.05 -2.33333,-2.33334 z m 10.76497,-8 -4.59489,-5 5,4.59489 c 2.75,2.52719 5,4.77719 5,5 0,1.01816 -1.12829,0.059 -5.40511,-4.59489 z M 91.333333,102.66667 C 92.660648,101.2 94.046633,100 94.4133,100 c 0.366667,0 -0.419319,1.2 -1.746633,2.66667 -1.327315,1.46666 -2.7133,2.66666 -3.079967,2.66666 -0.366667,0 0.419319,-1.2 1.746633,-2.66666 z m -22.25,-0.91082 c 0.9625,-0.38516 2.1125,-0.33779 2.555556,0.10526 0.443055,0.44306 -0.344445,0.75819 -1.75,0.7003 -1.553257,-0.064 -1.8692,-0.37992 -0.805556,-0.80556 z m 12.25,-2.259257 c 0,-0.276874 1.05,-1.326874 2.333334,-2.333333 2.114741,-1.658495 2.161901,-1.611335 0.503406,0.503407 -1.741825,2.220997 -2.83674,2.927303 -2.83674,1.829926 z m 96.752387,-1.772422 c -0.72357,-1.900264 -0.57043,-2.053416 0.7464,-0.746394 0.91123,0.904446 1.32089,1.980322 0.91037,2.390838 -0.41052,0.410517 -1.15606,-0.329483 -1.65677,-1.644444 z m -53.72257,-4.390838 c 0,-3.3 0.26002,-4.65 0.57783,-3 0.3178,1.65 0.3178,4.35 0,6 -0.31781,1.65 -0.57783,0.3 -0.57783,-3 z m 81.64629,1.348606 c -0.46712,-0.755814 0.0681,-0.979343 1.25464,-0.524015 C 209.57397,95.044312 209.9966,96 208.07869,96 c -0.69005,0 -1.62122,-0.593128 -2.06925,-1.318061 z M 39.029819,88 c 0,-3.3 0.260021,-4.65 0.577825,-3 0.317804,1.65 0.317804,4.35 0,6 -0.317804,1.65 -0.577825,0.3 -0.577825,-3 z M 200.66667,90.666667 C 199.33935,89.2 198.80203,88 199.47263,88 c 0.67058,0 1.96866,1.2 2.88461,2.666667 0.91595,1.466666 1.45327,2.666666 1.19404,2.666666 -0.25923,0 -1.55729,-1.2 -2.88461,-2.666666 z m -103.073405,-2 c 0.02717,-2.2 0.325998,-2.938582 0.664056,-1.641291 0.338058,1.297289 0.315826,3.097289 -0.0494,4 -0.365236,0.902709 -0.641829,-0.158709 -0.614656,-2.358709 z M 217.33333,87.496593 c 0,-0.276874 1.05,-1.326874 2.33334,-2.333333 2.11474,-1.658495 2.1619,-1.611335 0.50341,0.503407 -1.74183,2.220997 -2.83675,2.927305 -2.83675,1.829926 z m -42.5614,-2.941037 c 0.064,-1.553257 0.37992,-1.8692 0.80555,-0.805556 0.38516,0.9625 0.3378,2.1125 -0.1052,2.555556 -0.44307,0.443055 -0.75819,-0.344445 -0.70029,-1.75 z M 95.419057,80.390837 c -0.72358,-1.900264 -0.570428,-2.053416 0.746394,-0.746393 0.911224,0.904445 1.320894,1.980321 0.910378,2.390837 -0.410516,0.410518 -1.156064,-0.329482 -1.656772,-1.644444 z m 138.174213,-3.72417 c 0.0272,-2.2 0.326,-2.938582 0.66405,-1.641291 0.33805,1.297289 0.31583,3.097289 -0.0495,4 -0.36517,0.902709 -0.64176,-0.158709 -0.61458,-2.358709 z M 91.829927,75 c -1.658495,-2.114741 -1.611335,-2.161901 0.503406,-0.503407 2.220998,1.741826 2.927306,2.83674 1.829927,2.83674 -0.276875,0 -1.326875,-1.05 -2.333333,-2.333333 z m 82.942003,0.222223 c 0.064,-1.553258 0.37992,-1.8692 0.80555,-0.805556 0.38516,0.9625 0.3378,2.1125 -0.1052,2.555556 -0.44307,0.443054 -0.75819,-0.344446 -0.70029,-1.75 z M 72.666667,70.666667 c 0.453225,-0.733334 1.838634,-1.324146 3.078689,-1.312916 1.943033,0.01759 1.978227,0.19905 0.254644,1.312916 -2.611163,1.687462 -4.376243,1.687462 -3.333333,0 z M 111.20665,61 l -2.53998,-3 3,2.539984 C 114.48593,62.926941 115.27365,64 114.20665,64 c -0.25301,0 -1.60301,-1.35 -3,-3 z M 211,57.747565 c 1.28333,-0.335369 3.38333,-0.335369 4.66667,0 1.28333,0.335371 0.23333,0.609764 -2.33334,0.609764 -2.56666,0 -3.61666,-0.274393 -2.33333,-0.609764 z M 75.505551,46.94532 c -0.358506,-0.580075 1.406084,-0.814431 3.92131,-0.520792 C 81.942088,46.718167 84,47.192772 84,47.479208 c 0,1.003439 -7.849227,0.510104 -8.494449,-0.533888 z m 67.701099,-3.278653 -2.53998,-3 3,2.539984 c 1.65,1.39699 3,2.74699 3,3 0,1.067004 -1.07306,0.279276 -3.46002,-2.539984 z m 47.46002,1.16326 c 0,-0.276875 1.05,-1.326875 2.33333,-2.333334 2.11475,-1.658494 2.16191,-1.611334 0.50341,0.503407 -1.74182,2.220997 -2.83674,2.927305 -2.83674,1.829927 z M 207.33333,32 c 0.45323,-0.733333 1.08864,-1.333333 1.41203,-1.333333 0.32339,0 0.58797,0.6 0.58797,1.333333 0,0.733333 -0.63541,1.333333 -1.41202,1.333333 -0.77662,0 -1.0412,-0.6 -0.58798,-1.333333 z m 4.11904,-1.140724 c -0.38776,-0.627399 0.77684,-0.857452 2.58798,-0.511231 1.81114,0.346222 3.29298,0.859548 3.29298,1.140724 0,1.031667 -5.19818,0.475258 -5.88096,-0.629493 z"
         id="path418" />
      <path
         style="fill:#b9b9b9;fill-opacity:1;stroke-width:1.33333"
         d="m 155.75,395.08919 c 0.96249,-0.38516 2.11249,-0.3378 2.55556,0.1052 0.44305,0.44305 -0.34445,0.75818 -1.75,0.70029 -1.55327,-0.064 -1.8692,-0.37992 -0.80556,-0.80555 z m 19.02193,-30.53363 c 0.064,-1.55327 0.37992,-1.8692 0.80555,-0.80556 0.38516,0.96249 0.3378,2.11251 -0.1052,2.55556 -0.44307,0.44305 -0.75819,-0.34445 -0.70029,-1.75 z M 66.496593,335 C 64.838099,332.88525 64.885259,332.83809 67,334.49659 c 1.283333,1.00646 2.333333,2.05646 2.333333,2.33333 0,1.09739 -1.094914,0.39108 -2.83674,-1.82992 z M 176.10527,320.55556 c 0.064,-1.55327 0.37992,-1.8692 0.80554,-0.80556 0.38516,0.96249 0.3378,2.11249 -0.1052,2.55556 -0.44306,0.44305 -0.75818,-0.34445 -0.70029,-1.75 z m -5.27682,-15.00273 c -2.37949,-0.69775 0.28438,-1.65926 10.66667,-3.85007 43.80516,-9.24353 39.91292,-8.01659 46.83821,-14.76463 3.48334,-3.39417 6.38424,-5.59377 6.44647,-4.88801 0.0623,0.70577 0.21223,5.33983 0.33333,10.29789 0.26392,10.80472 0.53343,10.63415 -17.7798,11.25374 -6.96666,0.2357 -17.46666,0.5925 -23.33333,0.79289 -5.86667,0.20039 -12.76667,0.7522 -15.33333,1.22627 -2.56667,0.47405 -6.09387,0.44341 -7.83822,-0.0681 z m 71.94348,-15.66394 c 0.064,-1.55326 0.37992,-1.8692 0.80555,-0.80556 0.38516,0.9625 0.3378,2.1125 -0.1052,2.55556 -0.44307,0.44306 -0.75819,-0.34445 -0.70029,-1.75 z M 127.8162,276.06991 c -0.99891,-0.40512 -1.96232,-2.23658 -2.14092,-4.06991 -0.60124,-6.17195 -1.24235,-9.98841 -2.01584,-12 -0.42297,-1.1 -0.81783,-2.9 -0.87745,-4 -0.0596,-1.1 -0.42126,-4.4 -0.80363,-7.33333 -0.38237,-2.93334 -0.78044,-7.28334 -0.88459,-9.66667 -0.10416,-2.38333 -0.69996,-4.33333 -1.324,-4.33333 -0.62404,0 -0.75084,-2.4 -0.28178,-5.33334 0.5303,-3.3163 0.3345,-5.33333 -0.5177,-5.33333 -0.7538,0 -1.41024,-2.25 -1.45876,-5 -0.27884,-15.80476 -0.44315,-18.34285 -1.26938,-19.60819 -0.49985,-0.76549 -1.0013,-3.79181 -1.11434,-6.72514 -0.38027,-9.8682 -1.79438,-25.23255 -2.53799,-27.57547 -0.87418,-2.75428 1.89293,-8.55223 3.29354,-6.90101 0.53331,0.62873 6.32715,15.63392 12.87518,33.34488 10.33949,27.96594 12.43186,32.55262 15.90683,34.86932 2.20071,1.46717 18.2513,12.01272 35.66796,23.43457 C 197.75,261.2608 212,270.86493 212,271.18147 c 0,0.31653 -3.15,0.59256 -7,0.61338 -20.60879,0.11147 -26.8692,0.37962 -28.19885,1.20775 -0.8073,0.50281 -3.56782,1.07143 -6.13448,1.26361 -2.56667,0.19218 -7.66667,0.61882 -11.33334,0.94808 -12.54977,1.12699 -29.69997,1.59256 -31.51713,0.85562 z M 11.029819,254.66667 c 0,-3.3 0.260021,-4.65 0.577825,-3 0.317804,1.65 0.317804,4.35 0,6 -0.317804,1.65 -0.577825,0.3 -0.577825,-3 z M 267.28131,247 c -4.1198,-9.86633 -15.78043,-35.68565 -16.53462,-36.61148 -0.42332,-0.51965 -8.86449,0.55096 -18.75817,2.37915 -9.89369,1.82818 -26.68852,4.8375 -37.32185,6.68737 -10.63334,1.84987 -20.70664,3.70015 -22.38512,4.11172 l -3.05179,0.74832 0.16629,-22.81629 c 0.0915,-12.54896 0.56558,-23.06306 1.05358,-23.36466 0.48801,-0.3016 5.68648,-0.93716 11.55216,-1.41236 5.86568,-0.4752 12.16488,-1.10416 13.99821,-1.39768 1.83333,-0.29353 8.43333,-0.92545 14.66667,-1.40426 6.23333,-0.47883 11.81372,-1.16086 12.40085,-1.51562 0.94988,-0.57397 -39.19189,-19.74681 -48.89923,-23.35565 -3.52634,-1.31097 -3.63261,-1.53725 -1.33333,-2.83932 1.37411,-0.77815 6.09837,-1.59744 10.49837,-1.82064 8.49147,-0.43075 17.227,-1.11065 31.33334,-2.43873 4.76666,-0.44878 11.57736,-0.74799 15.13486,-0.66492 3.55752,0.0831 7.16932,-0.43084 8.02626,-1.14202 0.85692,-0.71118 4.54622,-1.30528 8.19845,-1.3202 3.65224,-0.0149 8.44043,-0.20613 10.64043,-0.42493 3.82593,-0.38049 4.01784,-0.1512 4.41,5.26887 0.22549,3.11666 0.97489,5.66666 1.66532,5.66666 0.72769,0 0.94421,3.36516 0.51514,8.0062 -0.4071,4.4034 -0.26088,8.7534 0.32495,9.66667 0.58583,0.91325 1.18659,5.56047 1.33501,10.32713 0.14843,4.76667 0.5548,12.86667 0.90306,18 0.34825,5.13334 0.64056,13.68334 0.64958,19 0.009,5.799 0.57175,9.66667 1.40443,9.66667 0.81036,0 1.35403,3.19072 1.30633,7.66667 -0.0449,4.21666 0.13147,10.51666 0.39211,14 0.26059,3.48333 0.3214,6.33333 0.13516,6.33333 -0.18625,0 -1.27816,-2.25 -2.42645,-5 z M 26.771929,235.22223 c 0.06397,-1.55327 0.379922,-1.8692 0.805556,-0.80556 0.385162,0.96249 0.337792,2.11249 -0.105266,2.55556 -0.443056,0.44305 -0.758188,-0.34446 -0.700294,-1.75 z M 350.77193,217.88889 c 0.064,-1.55326 0.37992,-1.8692 0.80555,-0.80556 0.38516,0.9625 0.3378,2.1125 -0.1052,2.55556 -0.44305,0.44306 -0.75819,-0.34445 -0.70029,-1.75 z m -62.03886,-6.22222 C 288.44895,210.75 287.17016,201.6 285.89133,191.33333 c -2.4052,-19.30918 -4.06574,-23.48436 -10.10222,-25.40026 -1.35068,-0.4287 -2.45578,-1.89134 -2.45578,-3.25031 0,-2.9094 5.81628,-4.61497 11.1622,-3.27324 3.381,0.84859 3.51047,1.23852 3.67463,11.06836 0.0936,5.60383 0.43071,11.68879 0.74913,13.52212 0.7091,4.08252 1.36654,29.33333 0.76374,29.33333 -0.23836,0 -0.66584,-0.75 -0.94996,-1.66666 z M 350.87719,188 c 0,-1.83333 0.30264,-2.58333 0.67252,-1.66667 0.36988,0.91667 0.36988,2.41667 0,3.33334 -0.36988,0.91666 -0.67252,0.16666 -0.67252,-1.66667 z m -28.74138,-24.75845 c -0.81404,-13.61614 -0.6468,-15.87026 1.34036,-18.06606 1.24876,-1.37985 2.86686,-2.50882 3.59579,-2.50882 0.72893,0 3.32215,-2.05606 5.76269,-4.56903 l 4.43739,-4.56901 -0.82596,7.90234 c -0.61632,5.89656 -0.40032,7.90236 0.85095,7.90236 1.23764,0 1.46318,1.83363 0.86105,7 -0.44872,3.85 -0.30576,9.14039 0.31769,11.75643 l 1.13352,4.75643 -6.80464,2.41508 c -3.74256,1.32829 -7.46482,2.66762 -8.27169,2.97629 -0.98449,0.3766 -1.77299,-4.55601 -2.39715,-14.99601 z M 85.198139,136.75369 c -0.3188,-0.3188 -2.3688,-0.86946 -4.555555,-1.22369 -2.186755,-0.35423 -4.125917,-0.76839 -4.309251,-0.92036 -0.423078,-0.35069 -2.581696,-0.8936 -4.412022,-1.10964 -0.776612,-0.0917 -1.041203,-0.76667 -0.587978,-1.5 0.453226,-0.73333 -0.31169,-1.33333 -1.699813,-1.33333 -2.675476,0 -20.300187,-16.00694 -20.300187,-18.43683 0,-0.78687 -0.812409,-1.91048 -1.805353,-2.49692 -2.194629,-1.29616 -5.372288,-7.05812 -3.908225,-7.08667 0.575801,-0.0112 0.257021,-0.52129 -0.7084,-1.13348 C 41.945933,100.90059 40.94184,99.25978 40.680036,97.866525 40.418233,96.473269 40.118123,95.183333 40.013127,95 c -0.28184,-0.492115 -0.232284,-13.498989 0.05588,-14.666667 0.135732,-0.55 0.175732,-1.45 0.08889,-2 -0.08685,-0.55 0.4421,-1 1.175433,-1 0.733334,0 1.262282,-0.45 1.175439,-1 C 42.090023,73.681255 42.93686,71.851019 46,68.787879 c 1.833333,-1.833334 3.333333,-3.8916 3.333333,-4.573927 0,-0.682325 1.445432,-2.187676 3.212072,-3.345223 1.766639,-1.157546 4.842123,-3.61531 6.834408,-5.461698 1.992286,-1.846388 4.146854,-3.0329 4.78793,-2.636694 0.641074,0.396206 1.16559,0.04956 1.16559,-0.770337 0,-0.819892 0.509134,-1.176051 1.131408,-0.791463 0.622275,0.384587 2.358406,-0.443873 3.858068,-1.841021 1.499663,-1.397148 3.099478,-2.167452 3.555143,-1.711787 0.455665,0.455667 3.969535,0.718388 7.808599,0.583827 7.63906,-0.267753 21.894769,4.717485 21.329439,7.458932 -0.17453,0.846383 0.47531,1.234712 1.4441,0.862953 2.26524,-0.869256 11.80682,9.468111 15.66608,16.972675 4.06222,7.899228 4.9792,23.314431 1.99708,33.572574 -3.07612,10.58149 -11.44232,20.43435 -21.98636,25.89331 -7.524089,3.89544 -13.336505,5.35595 -14.938751,3.75369 z m 1.97981,-30.60284 C 96.989923,102.05115 101.35035,87.258448 95.400321,78.256525 90.97186,71.556608 75.341725,66.338331 72.666667,70.666667 72.213441,71.4 73.099141,72 74.634888,72 c 6.222319,0 13.371413,7.991171 13.360128,14.933787 -0.0064,3.969206 -4.399937,11.142185 -8.007073,13.072663 -3.363852,1.80028 -8.803419,2.09413 -13.161326,0.71098 -4.270101,-1.355274 -2.570541,1.33108 2.98553,4.71899 4.948152,3.01722 11.235406,3.27588 17.365802,0.71443 z M 203,119.48299 c -3.11667,-1.83061 -5.66667,-2.94849 -5.66667,-2.48418 0,0.46431 -0.88092,-0.32048 -1.9576,-1.74397 -1.07666,-1.4235 -1.97666,-2.05726 -2,-1.40836 -0.0233,0.64889 -1.29044,-0.40682 -2.81582,-2.34604 -1.5254,-1.93922 -3.4181,-3.12743 -4.20602,-2.64047 -0.82926,0.51251 -1.04716,0.26177 -0.51741,-0.59538 0.50748,-0.82112 -0.58868,-2.46613 -2.46065,-3.69269 C 181.51912,103.35534 180,101.30245 180,100.00991 c 0,-1.29253 -0.86433,-3.067393 -1.92075,-3.944134 -1.05641,-0.876743 -1.59221,-2.450209 -1.19068,-3.496593 0.40154,-1.046384 0.13232,-1.902516 -0.59826,-1.902516 -0.8013,0 -1.15043,-3.835376 -0.87996,-9.666667 0.51158,-11.029712 0.78888,-12.585036 2.9402,-16.491356 0.8556,-1.553579 1.17674,-3.203579 0.71365,-3.666667 C 178.60111,60.378889 178.95763,60 179.85647,60 c 0.89884,0 1.26342,-0.6 0.8102,-1.333333 -0.45323,-0.733334 -0.18864,-1.333334 0.58797,-1.333334 0.77661,0 1.41203,-0.835806 1.41203,-1.857348 0,-1.021541 0.98588,-2.235665 2.19084,-2.698052 1.20496,-0.462386 1.85593,-1.175608 1.4466,-1.584936 -0.969,-0.969 11.64633,-13.859664 13.56364,-13.859664 0.80608,0 1.46558,-0.576873 1.46558,-1.281941 0,-0.705068 2.54564,-1.967411 5.65698,-2.805208 17.36158,-4.674988 37.97606,6.2092 47.15102,24.895145 3.37026,6.863946 3.84807,9.293208 3.77498,19.192004 -0.068,9.200184 -0.72035,12.713607 -3.4662,18.666667 -6.90248,14.96471 -21.43319,25.10498 -37.5979,26.23775 -6.95169,0.48715 -9.03972,0.0719 -13.85221,-2.75476 z m 22.09071,-26.190203 c 5.73953,-3.499278 10.16036,-13.092932 8.9663,-19.457807 -1.686,-8.987124 -11.53994,-16.468969 -21.72368,-16.494211 -4.54266,-0.0112 -3.60448,1.879343 2.2044,4.442211 14.24054,6.282911 9.8772,28.170001 -5.60985,28.139789 -3.077,-0.006 -6.79455,-0.487197 -8.26121,-1.069321 -1.60034,-0.635177 -0.82074,0.582067 1.94964,3.044072 3.85921,3.42966 5.7179,4.101663 11.33333,4.097496 4.38836,-0.0032 8.25076,-0.940068 11.14107,-2.702229 z M 40.666667,54.666667 C 41.993981,53.2 43.379967,52 43.746633,52 44.1133,52 43.327315,53.2 42,54.666667 c -1.327315,1.466666 -2.7133,2.666666 -3.079967,2.666666 -0.366666,0 0.419319,-1.2 1.746634,-2.666666 z"
         id="path416" />
      <path
         style="fill:#a3a3a3;fill-opacity:1;stroke-width:1.33333"
         d="m 174.87719,360 c 0,-1.83333 0.30264,-2.58333 0.67252,-1.66667 0.36988,0.91667 0.36988,2.41667 0,3.33334 -0.36988,0.91666 -0.67252,0.16666 -0.67252,-1.66667 z M 51.829927,352.33333 c -1.658495,-2.11474 -1.611335,-2.1619 0.503406,-0.50341 1.283334,1.00647 2.333334,2.05647 2.333334,2.33333 0,1.09739 -1.094915,0.39108 -2.83674,-1.82992 z M 179.75,305.75585 c 0.96249,-0.38516 2.11249,-0.3378 2.55556,0.1052 0.44305,0.44306 -0.34445,0.75819 -1.75,0.7003 -1.55327,-0.064 -1.8692,-0.37992 -0.80556,-0.80555 z m 25.33333,-1.33333 c 0.9625,-0.38516 2.1125,-0.3378 2.55556,0.1052 0.44306,0.44305 -0.34445,0.75819 -1.75,0.70029 -1.55326,-0.064 -1.8692,-0.37992 -0.80556,-0.80554 z m 24,-1.33333 c 0.9625,-0.38516 2.1125,-0.3378 2.55556,0.1052 0.44306,0.44305 -0.34445,0.75818 -1.75,0.70029 -1.55326,-0.064 -1.8692,-0.37992 -0.80556,-0.80555 z m 13.6886,-17.2003 c 0.064,-1.55326 0.37992,-1.8692 0.80555,-0.80556 0.38516,0.9625 0.3378,2.1125 -0.1052,2.55556 -0.44307,0.44306 -0.75819,-0.34445 -0.70029,-1.75 z m -113.10526,-8.14133 c 1.28333,-0.33536 3.38333,-0.33536 4.66666,0 1.28334,0.33537 0.23334,0.60977 -2.33333,0.60977 -2.56667,0 -3.61667,-0.2744 -2.33333,-0.60977 z m 64.75,-5.32504 c 0.96249,-0.38516 2.11249,-0.3378 2.55556,0.1052 0.44305,0.44305 -0.34446,0.75819 -1.75,0.70029 -1.55327,-0.064 -1.8692,-0.37992 -0.80556,-0.80554 z M 313.4386,233.88889 c 0.064,-1.55326 0.37992,-1.8692 0.80555,-0.80556 0.38516,0.9625 0.3378,2.1125 -0.1052,2.55556 -0.44307,0.44306 -0.75819,-0.34445 -0.7003,-1.75 z m -29.77193,-5.4386 c 0.91666,-0.36988 2.41666,-0.36988 3.33333,0 0.91667,0.36988 0.16667,0.67252 -1.66667,0.67252 -1.83333,0 -2.58333,-0.30264 -1.66666,-0.67252 z m 29.77193,-6.5614 c 0.064,-1.55326 0.37992,-1.8692 0.80555,-0.80556 0.38516,0.9625 0.3378,2.1125 -0.1052,2.55556 -0.44307,0.44306 -0.75819,-0.34445 -0.7003,-1.75 z M 313.54385,216 c 0,-1.83333 0.30264,-2.58333 0.67252,-1.66667 0.36988,0.91667 0.36988,2.41667 0,3.33334 -0.36988,0.91666 -0.67252,0.16666 -0.67252,-1.66667 z m 37.43215,-4 c 0,-2.56667 0.2744,-3.61667 0.60977,-2.33333 0.33536,1.28333 0.33536,3.38333 0,4.66666 C 351.2504,215.61667 350.976,214.56667 350.976,212 Z m -84.20407,-8.77777 c 0.064,-1.55327 0.37992,-1.8692 0.80555,-0.80556 0.38516,0.96249 0.3378,2.11249 -0.1052,2.55556 -0.44307,0.44305 -0.75819,-0.34446 -0.70029,-1.75 z M 350.9266,194 c 0.0272,-2.2 0.326,-2.93859 0.66405,-1.64129 0.33806,1.29729 0.31583,3.09729 -0.0495,4 -0.36524,0.9027 -0.64183,-0.15871 -0.61466,-2.35871 z m -61.23012,-7.33333 c 0,-3.3 0.26003,-4.65 0.57783,-3 0.31781,1.65 0.31781,4.35 0,6 -0.3178,1.65 -0.57783,0.3 -0.57783,-3 z m -24.25788,-0.77778 c 0.064,-1.55326 0.37992,-1.8692 0.80555,-0.80556 0.38516,0.9625 0.3378,2.1125 -0.1052,2.55556 -0.44307,0.44306 -0.75819,-0.34445 -0.7003,-1.75 z m -152,-1.33333 c 0.064,-1.55327 0.37992,-1.8692 0.80555,-0.80556 0.38516,0.96249 0.33779,2.11249 -0.10526,2.55556 -0.44306,0.44305 -0.75819,-0.34445 -0.7003,-1.75 z m 225.33333,-14.66667 c 0.064,-1.55326 0.37992,-1.8692 0.80555,-0.80556 0.38516,0.9625 0.3378,2.1125 -0.1052,2.55556 -0.44307,0.44306 -0.75819,-0.34445 -0.70029,-1.75 z M 112.21053,168 c 0,-1.83333 0.30263,-2.58333 0.67251,-1.66667 0.36988,0.91667 0.36988,2.41667 0,3.33334 -0.36988,0.91666 -0.67251,0.16666 -0.67251,-1.66667 z M 285,159.11696 c 0.91667,-0.36988 2.41667,-0.36988 3.33333,0 0.91667,0.36988 0.16667,0.67252 -1.66666,0.67252 -1.83334,0 -2.58334,-0.30264 -1.66667,-0.67252 z m 31,-15.62037 c 0,-0.27687 1.05,-1.32687 2.33333,-2.33334 2.11475,-1.65849 2.16191,-1.61133 0.50342,0.50342 -1.74183,2.221 -2.83675,2.9273 -2.83675,1.82992 z m -94.91667,-3.07407 c 0.9625,-0.38516 2.1125,-0.3378 2.55556,0.1052 0.44306,0.44307 -0.34445,0.75819 -1.75,0.70029 -1.55326,-0.064 -1.8692,-0.37992 -0.80556,-0.80554 z M 93.666667,139.08089 c 1.283333,-0.33536 3.383333,-0.33536 4.666666,0 1.283334,0.33538 0.233334,0.60978 -2.333333,0.60978 -2.566667,0 -3.616667,-0.2744 -2.333333,-0.60978 z M 229,127.11696 c 0.91667,-0.36988 2.41667,-0.36988 3.33333,0 0.91667,0.36988 0.16667,0.67251 -1.66666,0.67251 -1.83334,0 -2.58334,-0.30263 -1.66667,-0.67251 z M 55.206651,121 l -2.539984,-3 3,2.53998 c 2.81926,2.38696 3.606988,3.46002 2.539984,3.46002 -0.25301,0 -1.60301,-1.35 -3,-3 z"
         id="path414" />
      <path
         style="fill:#8c8c8c;fill-opacity:1;stroke-width:1.33333"
         d="m 164.35167,395.04323 c 2.02674,-0.30648 5.02674,-0.29828 6.66666,0.0181 1.63992,0.31648 -0.0183,0.56723 -3.685,0.55723 -3.66666,-0.0107 -5.00841,-0.26896 -2.98166,-0.57543 z M 247.82992,347 c -1.65849,-2.11475 -1.61133,-2.16191 0.50341,-0.50341 1.28334,1.00646 2.33334,2.05646 2.33334,2.33333 0,1.09739 -1.09492,0.39108 -2.83675,-1.82992 z m -24,-25.33333 c -1.65849,-2.11475 -1.61133,-2.16191 0.50341,-0.50342 1.28334,1.00647 2.33334,2.05647 2.33334,2.33334 0,1.09738 -1.09492,0.39108 -2.83675,-1.82992 z M 159.75,307.08919 c 0.96249,-0.38516 2.11249,-0.3378 2.55556,0.1052 0.44305,0.44305 -0.34445,0.75818 -1.75,0.70029 -1.55327,-0.064 -1.8692,-0.37992 -0.80556,-0.80555 z m 23.91667,-1.30556 c 0.91666,-0.36988 2.41666,-0.36988 3.33333,0 0.91667,0.36988 0.16667,0.67252 -1.66667,0.67252 -1.83333,0 -2.58333,-0.30264 -1.66666,-0.67252 z m 49.41666,-2.69444 c 0.9625,-0.38516 2.1125,-0.3378 2.55556,0.1052 0.44306,0.44305 -0.34445,0.75818 -1.75,0.70029 -1.55326,-0.064 -1.8692,-0.37992 -0.80556,-0.80555 z m 9.79386,-21.75586 c 0,-1.83333 0.30264,-2.58333 0.67252,-1.66666 0.36988,0.91666 0.36988,2.41666 0,3.33333 -0.36988,0.91667 -0.67252,0.16667 -0.67252,-1.66667 z m -64.46052,-7.57748 c 0.96249,-0.38516 2.11249,-0.3378 2.55556,0.1052 0.44305,0.44306 -0.34446,0.75819 -1.75,0.7003 -1.55327,-0.064 -1.8692,-0.37992 -0.80556,-0.80555 z m 20.6087,-1.3465 c 1.2973,-0.33806 3.0973,-0.31583 4,0.0495 0.90271,0.36524 -0.1587,0.64183 -2.3587,0.61466 -2.2,-0.0272 -2.93859,-0.326 -1.6413,-0.66406 z m 83.74656,-14.52046 c 0.064,-1.55326 0.37992,-1.8692 0.80555,-0.80556 0.38516,0.9625 0.3378,2.1125 -0.1052,2.55556 -0.44307,0.44306 -0.75819,-0.34445 -0.70029,-1.75 z m -13.33333,-20 c 0.064,-1.55326 0.37992,-1.8692 0.80555,-0.80556 0.38516,0.9625 0.3378,2.1125 -0.1052,2.55556 -0.44307,0.44306 -0.75819,-0.34445 -0.7003,-1.75 z m 44.32149,-32.55556 c 0,-4.76666 0.242,-6.71666 0.53778,-4.33333 0.29576,2.38333 0.29576,6.28333 0,8.66667 -0.29578,2.38333 -0.53778,0.43333 -0.53778,-4.33334 z m 37.26972,-2.66666 c 0,-3.3 0.26003,-4.65 0.57783,-3 0.31781,1.65 0.31781,4.35 0,6 -0.3178,1.65 -0.57783,0.3 -0.57783,-3 z M 289.69648,176 c 0,-3.3 0.26003,-4.65 0.57783,-3 0.31781,1.65 0.31781,4.35 0,6 -0.3178,1.65 -0.57783,0.3 -0.57783,-3 z m 49.07545,-10.11111 c 0.064,-1.55326 0.37992,-1.8692 0.80555,-0.80556 0.38516,0.9625 0.3378,2.1125 -0.1052,2.55556 -0.44307,0.44306 -0.75819,-0.34445 -0.70029,-1.75 z M 203.75,141.75585 c 0.96249,-0.38516 2.11249,-0.3378 2.55556,0.1052 0.44305,0.44307 -0.34445,0.75819 -1.75,0.7003 -1.55327,-0.064 -1.8692,-0.37992 -0.80556,-0.80555 z M 37.54386,88 c 0,-1.833333 0.302631,-2.583333 0.672515,-1.666667 0.369882,0.916667 0.369882,2.416667 0,3.333334 C 37.846491,90.583333 37.54386,89.833333 37.54386,88 Z m 136.09881,-6.666667 c 0,-2.566666 0.2744,-3.616666 0.60977,-2.333333 0.33536,1.283333 0.33536,3.383333 0,4.666667 C 173.91707,84.95 173.64267,83.9 173.64267,81.333333 Z"
         id="path412" />
      <path
         style="fill:#767676;fill-opacity:1;stroke-width:1.33333"
         d="m 174.87719,352 c 0,-1.83333 0.30264,-2.58333 0.67252,-1.66667 0.36988,0.91667 0.36988,2.41667 0,3.33334 -0.36988,0.91666 -0.67252,0.16666 -0.67252,-1.66667 z m 174.45614,-33.83675 c 0,-0.27686 1.05,-1.32686 2.33334,-2.33333 2.11474,-1.65849 2.1619,-1.61133 0.50341,0.50341 -1.74183,2.221 -2.83675,2.92731 -2.83675,1.82992 z M 163.75,307.08919 c 0.96249,-0.38516 2.11249,-0.3378 2.55556,0.1052 0.44305,0.44305 -0.34445,0.75818 -1.75,0.70029 -1.55327,-0.064 -1.8692,-0.37992 -0.80556,-0.80555 z m 48,-2.66667 c 0.96249,-0.38516 2.11249,-0.3378 2.55556,0.1052 0.44305,0.44305 -0.34445,0.75819 -1.75,0.70029 -1.55327,-0.064 -1.8692,-0.37992 -0.80556,-0.80554 z m 122.91667,-3.75585 C 337.15437,298.1 339.48977,296 339.85644,296 c 0.36667,0 -1.36873,2.1 -3.85644,4.66667 -2.48771,2.56666 -4.82311,4.66666 -5.18977,4.66666 -0.36667,0 1.36873,-2.1 3.85644,-4.66666 z M 231.75,276.42252 c 0.96249,-0.38516 2.11249,-0.3378 2.55556,0.1052 0.44305,0.44305 -0.34445,0.75819 -1.75,0.70029 -1.55327,-0.064 -1.8692,-0.37992 -0.80556,-0.80554 z m 59.1766,-51.75585 c 0.0272,-2.2 0.326,-2.93859 0.66405,-1.6413 0.33806,1.2973 0.31583,3.0973 -0.0495,4 -0.36524,0.90271 -0.64183,-0.1587 -0.61466,-2.3587 z m -22.82133,-8.11111 c 0.064,-1.55327 0.37992,-1.8692 0.80554,-0.80556 0.38516,0.96249 0.3378,2.11249 -0.1052,2.55556 -0.44306,0.44305 -0.75818,-0.34445 -0.70029,-1.75 z m 72.15466,-17.22223 c 0.0272,-2.2 0.326,-2.93858 0.66406,-1.64129 0.33805,1.29729 0.31582,3.09729 -0.0495,4 -0.36524,0.90271 -0.64183,-0.15871 -0.61465,-2.35871 z m -26.49984,-10 c 0,-4.76666 0.242,-6.71666 0.53778,-4.33333 0.29576,2.38333 0.29576,6.28333 0,8.66667 -0.29578,2.38333 -0.53778,0.43333 -0.53778,-4.33334 z M 289.54385,168 c 0,-1.83333 0.30264,-2.58333 0.67252,-1.66667 0.36988,0.91667 0.36988,2.41667 0,3.33334 -0.36988,0.91666 -0.67252,0.16666 -0.67252,-1.66667 z m 49.22808,-6.11111 c 0.064,-1.55326 0.37992,-1.8692 0.80555,-0.80556 0.38516,0.9625 0.3378,2.1125 -0.1052,2.55556 -0.44307,0.44306 -0.75819,-0.34445 -0.70029,-1.75 z m -20,-2.66666 c 0.064,-1.55327 0.37992,-1.8692 0.80555,-0.80556 0.38516,0.96249 0.3378,2.11249 -0.1052,2.55556 -0.44307,0.44305 -0.75819,-0.34446 -0.70029,-1.75 z M 332,136.82992 c 0,-0.27687 1.05,-1.32687 2.33333,-2.33333 2.11475,-1.65849 2.16191,-1.61133 0.50342,0.50341 C 333.09492,137.221 332,137.92731 332,136.82992 Z M 372.53999,69 370,66 l 3,2.539984 c 1.65,1.396991 3,2.746991 3,3 C 376,72.606988 374.92695,71.81926 372.53999,69 Z M 190.66667,43.333333 C 192.389,41.5 194.09817,40 194.46484,40 c 0.36667,0 -0.74251,1.5 -2.46484,3.333333 -1.72233,1.833334 -3.43151,3.333334 -3.79817,3.333334 -0.36667,0 0.7425,-1.5 2.46484,-3.333334 z m -88.33334,-4.216374 c 0.91667,-0.369883 2.41667,-0.369883 3.33334,0 0.91666,0.369884 0.16666,0.672514 -1.66667,0.672514 -1.83333,0 -2.58333,-0.30263 -1.66667,-0.672514 z"
         id="path410" />
      <path
         style="fill:#606060;fill-opacity:1;stroke-width:1.33333"
         d="m 189.08333,368.42252 c 0.9625,-0.38516 2.1125,-0.3378 2.55556,0.1052 0.44306,0.44305 -0.34445,0.75819 -1.75,0.70029 -1.55326,-0.064 -1.8692,-0.37992 -0.80556,-0.80554 z m 26.66667,-64 c 0.96249,-0.38516 2.11249,-0.3378 2.55556,0.1052 0.44305,0.44305 -0.34445,0.75819 -1.75,0.70029 -1.55327,-0.064 -1.8692,-0.37992 -0.80556,-0.80554 z m 20.50993,-19.75585 c 0.0272,-2.2 0.326,-2.93859 0.66406,-1.6413 0.33805,1.2973 0.31582,3.0973 -0.0495,4 -0.36524,0.90271 -0.64183,-0.1587 -0.61465,-2.3587 z m -9.9266,-8.21638 c 0.91667,-0.36988 2.41667,-0.36988 3.33334,0 0.91666,0.36988 0.16666,0.67252 -1.66667,0.67252 -1.83333,0 -2.58333,-0.30264 -1.66667,-0.67252 z m 56.4386,-13.22806 c 0.064,-1.55327 0.37992,-1.8692 0.80555,-0.80556 0.38516,0.96249 0.3378,2.11249 -0.1052,2.55556 -0.44307,0.44305 -0.75819,-0.34446 -0.70029,-1.75 z m 22.24362,-38.83191 c 1.65854,-0.31892 4.05854,-0.30681 5.33333,0.0269 1.27479,0.33372 -0.0823,0.59467 -3.01555,0.57987 -2.93333,-0.0148 -3.97633,-0.28785 -2.31778,-0.60677 z M 290.976,217.33333 c 0,-2.56666 0.2744,-3.61666 0.60977,-2.33333 0.33536,1.28333 0.33536,3.38333 0,4.66667 C 291.2504,220.95 290.976,219.9 290.976,217.33333 Z m 49.33333,-10.66666 c 0,-2.56667 0.2744,-3.61667 0.60978,-2.33334 0.33536,1.28334 0.33536,3.38334 0,4.66667 -0.33538,1.28333 -0.60978,0.23333 -0.60978,-2.33333 z m 0.0269,-15.33334 c 0.0148,-2.93333 0.28785,-3.97633 0.60677,-2.31778 0.31892,1.65854 0.30681,4.05854 -0.0269,5.33333 -0.33372,1.27479 -0.59467,-0.0823 -0.57987,-3.01555 z m -26.60339,-16.66666 c 0,-4.03334 0.24996,-5.68334 0.55545,-3.66667 0.30551,2.01667 0.30551,5.31667 0,7.33333 -0.30549,2.01667 -0.55545,0.36667 -0.55545,-3.66666 z m -24.18903,-12 c 0,-1.83334 0.30264,-2.58334 0.67252,-1.66667 0.36988,0.91667 0.36988,2.41667 0,3.33333 -0.36988,0.91667 -0.67252,0.16667 -0.67252,-1.66666 z m -178.87718,-3.92131 c 0,-0.69005 0.59312,-1.62123 1.31806,-2.06925 0.75581,-0.46712 0.97934,0.0681 0.52401,1.25464 -0.88639,2.30989 -1.84207,2.73252 -1.84207,0.81461 z"
         id="path408" />
      <path
         style="fill:#494949;fill-opacity:1;stroke-width:1.33333"
         d="m 174.87719,344 c 0,-1.83333 0.30264,-2.58333 0.67252,-1.66667 0.36988,0.91667 0.36988,2.41667 0,3.33334 -0.36988,0.91666 -0.67252,0.16666 -0.67252,-1.66667 z M 169,307.11696 c 0.91667,-0.36988 2.41667,-0.36988 3.33333,0 0.91667,0.36988 0.16667,0.67252 -1.66666,0.67252 -1.83334,0 -2.58334,-0.30264 -1.66667,-0.67252 z M 236.38135,294 c 0.0107,-3.66667 0.26896,-5.00841 0.57542,-2.98167 0.30648,2.02675 0.29828,5.02675 -0.0181,6.66667 -0.31648,1.63992 -0.56723,-0.0183 -0.55723,-3.685 z m 46.39058,-26.77777 c 0.064,-1.55327 0.37992,-1.8692 0.80555,-0.80556 0.38516,0.96249 0.3378,2.11249 -0.1052,2.55556 -0.44307,0.44305 -0.75819,-0.34446 -0.70029,-1.75 z m 57.43859,-53.8889 c 0,-1.83333 0.30264,-2.58333 0.67252,-1.66666 0.36988,0.91666 0.36988,2.41666 0,3.33333 -0.36988,0.91667 -0.67252,0.16667 -0.67252,-1.66667 z m -49.33333,-2.66666 c 0,-1.83334 0.30264,-2.58334 0.67252,-1.66667 0.36988,0.91667 0.36988,2.41667 0,3.33333 -0.36988,0.91667 -0.67252,0.16667 -0.67252,-1.66666 z m 29.22808,-24.77778 c 0.064,-1.55326 0.37992,-1.8692 0.80554,-0.80556 0.38516,0.9625 0.3378,2.1125 -0.1052,2.55556 -0.44306,0.44306 -0.75818,-0.34445 -0.70029,-1.75 z m 20.20406,-3.22222 c 0,-2.56667 0.2744,-3.61667 0.60978,-2.33334 0.33536,1.28334 0.33536,3.38334 0,4.66667 -0.33538,1.28333 -0.60978,0.23333 -0.60978,-2.33333 z m -42.87073,-2.11111 c 0.064,-1.55327 0.37992,-1.8692 0.80555,-0.80556 0.38516,0.96249 0.3378,2.11249 -0.1052,2.55556 -0.44307,0.44305 -0.75819,-0.34445 -0.7003,-1.75 z m 12.97807,-18.79971 c 0.96249,-0.38516 2.11249,-0.3378 2.55556,0.1052 0.44305,0.44307 -0.34446,0.75819 -1.75,0.7003 -1.55327,-0.064 -1.8692,-0.37992 -0.80556,-0.80555 z m -32,-4 c 0.96249,-0.38516 2.11249,-0.3378 2.55556,0.1052 0.44305,0.44307 -0.34446,0.75819 -1.75,0.7003 -1.55327,-0.064 -1.8692,-0.37992 -0.80556,-0.80555 z m -7.53948,-24.42252 c 0,-1.83333 0.30264,-2.58333 0.67252,-1.66666 0.36988,0.91666 0.36988,2.41666 0,3.33333 -0.36988,0.91667 -0.67252,0.16667 -0.67252,-1.66667 z m 59.78948,-3.17007 c 0,-0.27687 1.05,-1.32687 2.33333,-2.33333 2.11475,-1.6585 2.16191,-1.61134 0.50341,0.5034 -1.74182,2.221 -2.83674,2.92731 -2.83674,1.82993 z m 25.16325,-57.829927 c -1.65849,-2.114741 -1.61133,-2.161901 0.50341,-0.503406 2.221,1.741825 2.92731,2.83674 1.82992,2.83674 -0.27686,0 -1.32686,-1.05 -2.33333,-2.333334 z M 226.41667,16.422515 c 0.96249,-0.385162 2.11249,-0.337792 2.55556,0.105266 0.44305,0.443056 -0.34446,0.758188 -1.75,0.700294 -1.55327,-0.06397 -1.8692,-0.379922 -0.80556,-0.805556 z"
         id="path406" />
      <path
         style="fill:#333333;fill-opacity:1;stroke-width:1.33333"
         d="M 136,392.55675 C 38.146468,376.87553 -13.74148,283.64032 25.163497,193.39941 c 5.754282,-13.34717 14.886452,-28.62024 23.264847,-38.90921 3.064411,-3.7632 6.138897,-7.61592 6.832193,-8.5616 0.908602,-1.23936 -0.659456,-3.44565 -5.616324,-7.90231 C 31.69792,121.89103 22.493295,98.557277 27.106228,80.892425 31.574068,63.783196 44.084081,49.627499 63.180265,40.072868 77.928871,32.693517 88.563608,30.146585 104,30.296881 c 30.77368,0.299627 49.27211,15.914847 55.13263,46.539531 L 160.88624,86 l 0.98039,-6.666667 c 4.60621,-31.322372 21.78766,-51.618289 50.85698,-60.075781 9.76714,-2.841669 30.36722,-3.179643 40.60972,-0.666259 33.70887,8.271736 53.16167,38.506338 46.1713,71.761939 -3.0692,14.601248 -9.09643,24.761188 -19.91582,33.571628 -8.21621,6.69061 -9.02465,7.77991 -8.34329,11.24181 C 271.66048,137.275 272,141.925 272,145.5 v 6.5 l 7,0.0147 c 3.85,0.008 9.25,0.38657 12,0.84112 4.80088,0.79353 5,1.03757 5,6.12797 0,4.28651 0.4038,5.14657 2.10905,4.49221 1.15998,-0.44513 5.05998,-0.80932 8.66667,-0.80932 h 6.55761 v -7.90794 -7.90794 l 12.62586,-11.72278 c 6.94421,-6.44754 13.69421,-11.73896 15,-11.75873 1.30577,-0.0198 9.69946,-5.58578 18.65262,-12.36892 l 16.27848,-12.332979 -3.9373,-6.333688 C 365.91948,82.627977 357.39051,72.792857 349.74527,66.725001 341.89748,60.496401 324.28809,51.479319 309,45.860936 c -5.68333,-2.088629 -10.33333,-4.278488 -10.33333,-4.866353 0,-1.361748 15.53986,0.06472 26.06685,2.392776 24.14475,5.339648 44.49475,18.934401 60.74688,40.58177 l 3.48041,4.635795 12.80488,-9.624763 12.8049,-9.624762 3.4282,4.322301 c 1.88549,2.377265 4.87769,6.765929 6.6493,9.752587 l 3.22114,5.430286 -40.71132,18.541757 c -22.39123,10.19797 -40.97416,18.96702 -41.29539,19.48679 -0.32124,0.51977 0.37323,8.33235 1.54325,17.36129 2.76695,21.35208 3.99548,73.8936 2.11243,90.34343 -0.79289,6.9266 -1.18797,12.84749 -0.87793,13.15753 0.53037,0.53038 88.64376,32.24863 89.58677,32.24863 1.89879,0 -5.27005,16.21259 -8.26959,18.70199 -1.10528,0.91729 -8.56041,-2.57339 -24.70482,-11.5674 -20.88816,-11.63676 -23.25699,-12.65368 -24.52058,-10.52658 -16.61625,27.97148 -40.82604,53.59799 -67.39872,71.3428 -30.51672,20.37859 -64.35633,34.61244 -100,42.06272 -21.5158,4.49726 -57.71177,5.68762 -77.33333,2.54322 z m 30.00388,-39.25166 c 1.31124,-9.54886 2.12784,-17.61781 1.81467,-17.93098 -0.67766,-0.67766 -24.8658,28.99561 -25.9599,31.84678 -0.60329,1.57214 0.82256,2.07079 7.02556,2.457 4.28035,0.26651 9.34691,0.598 11.25902,0.73667 3.47097,0.25171 3.4804,0.2242 5.86065,-17.10947 z m 27.95432,14.02824 c -0.0229,-0.73333 -0.53693,-12.96068 -1.14209,-27.17186 l -1.10028,-25.83855 -7.33163,0.75669 c -4.03239,0.41618 -7.51016,0.94352 -7.72839,1.17187 -0.21821,0.22836 -0.8357,12.29311 -1.37217,26.81055 l -0.97543,26.39537 9.8459,-0.39537 c 5.449,-0.2188 9.82722,-0.99079 9.80409,-1.7287 z M 215,365.92456 c 3.48333,-0.49171 6.33333,-1.20155 6.33333,-1.57743 0,-1.4999 -20.73601,-34.92814 -21.69206,-34.96946 -0.56398,-0.0244 -0.74007,1.30566 -0.39131,2.95566 0.34875,1.65 1.31284,9.6 2.14243,17.66667 1.82912,17.78587 1.99097,18.35993 4.93437,17.50121 1.28695,-0.37545 5.18991,-1.08496 8.67324,-1.57665 z m -64.40863,-23.56269 c 11.04142,-13.36763 20.0753,-24.79743 20.0753,-25.39954 0,-0.81837 -16.10403,0.0265 -16.79294,0.88104 -5.08089,6.30226 -32.86527,44.11847 -33.35781,45.402 -0.41253,1.07504 0.31031,2.11898 1.71951,2.48334 7.3168,1.89182 7.86788,1.4377 28.35594,-23.36684 z m -23.28837,-1.2852 c 9.91668,-11.87451 18.03033,-22.0365 18.03033,-22.58219 0,-0.54571 -1.95,-1.1802 -4.33333,-1.41 L 136.66667,316.66667 135.48484,303 134.30303,289.33333 h -9.72834 c -8.09835,0 -9.85052,-0.39094 -10.45762,-2.33333 -3.23901,-10.36292 -16.544349,-112.28235 -16.772333,-128.47672 -0.0063,-0.44553 -3.53748,-1.17861 -7.847129,-1.62905 -6.573437,-0.68707 -17.017057,-3.82867 -27.021668,-8.12854 -1.71056,-0.73518 -3.650043,1.48872 -8.848759,10.14638 -13.869108,23.09686 -21.424361,41.39478 -25.06419,60.70246 -2.846187,15.09776 -1.969198,38.05275 2.01548,52.75471 9.657582,35.63281 36.346074,70.48713 64.867528,84.71491 7.900831,3.94129 11.044391,5.28049 12.857001,5.47725 0.53332,0.0579 9.08332,-9.61024 19,-21.48473 z m 111.95037,19.51702 c 2.62684,-0.4928 5.10055,-1.42098 5.49711,-2.06264 0.39656,-0.64165 -8.28301,-11.29561 -19.28793,-23.67545 -17.67006,-19.87765 -20.40564,-22.43296 -23.40243,-21.86009 -1.8664,0.35678 -3.39345,0.89082 -3.39345,1.18677 0,0.29595 7.24056,11.37463 16.09013,24.61929 10.70057,16.01495 16.69816,23.84791 17.90532,23.38467 0.99835,-0.38309 3.96441,-1.09975 6.59125,-1.59255 z m 31.24827,-12.86098 c 28.85805,-15.59423 58.74341,-38.31256 72.91775,-55.43079 7.36709,-8.89717 20.05122,-28.04052 19.08429,-28.80269 -0.27703,-0.21835 -3.93403,-2.32779 -8.12665,-4.68764 l -7.62299,-4.29064 -0.82077,3.27024 c -0.79047,3.14946 -1.38303,2.8233 -16.0437,-8.83054 -11.56497,-9.19306 -15.2229,-12.84486 -15.2229,-15.19738 0,-2.82703 -0.58036,-3.0966 -6.66667,-3.0966 -6.17809,0 -6.66667,0.23837 -6.66667,3.2526 0,3.05398 -0.5763,3.30938 -9.43818,4.18261 l -9.4382,0.93001 0.4382,16.50204 c 0.36608,13.78646 0.10906,16.59423 -1.56182,17.06231 -1.1,0.30813 -10.25,0.97241 -20.33333,1.47616 l -18.33333,0.91589 v 16.50586 c 0,9.07821 -0.5046,16.50585 -1.12134,16.50585 -2.38958,0 -23.64032,2.86991 -25.32176,3.41969 -1.83465,0.5999 37.78682,43.24698 40.1788,43.24698 0.69716,0 7.04184,-3.12028 14.09927,-6.93396 z m -73.83916,-41.84318 c 21.26437,-1.15686 38.96437,-2.404 39.33333,-2.77142 0.36898,-0.36742 0.87924,-6.6887 1.13395,-14.04727 l 0.46309,-13.37925 -15.12976,0.91849 c -31.51364,1.91309 -56.93513,5.33663 -74.25092,9.99941 l -5.78784,1.55855 0.88379,8.24931 c 1.41711,13.2275 1.31796,13.0836 8.45876,12.2784 3.42821,-0.38656 23.63124,-1.64936 44.8956,-2.80622 z m -37.62456,-29.1855 c 10.42915,-1.07944 27.66208,-2.58384 38.29541,-3.3431 21.84948,-1.56012 72.75414,-7.51225 74.73908,-8.73902 0.71743,-0.44339 1.06116,-1.21471 0.76386,-1.71404 C 272.53896,262.40855 270.34445,234.1 267.95961,200 c -2.38485,-34.1 -4.70138,-62.38113 -5.14785,-62.84696 -0.677,-0.70636 -22.76772,0.99708 -95.47843,7.36249 -4.4,0.38519 -13.4,1.10772 -20,1.60563 -8.82438,0.66571 -13.41138,1.70923 -17.33333,3.94328 -2.93333,1.67091 -8.03333,3.79111 -11.33333,4.71156 -3.3,0.92045 -6.38997,2.0224 -6.8666,2.44877 -2.74122,2.45223 10.44477,114.03258 14.19237,120.09634 1.15201,1.86398 10.81861,1.68348 33.04548,-0.61708 z M 339.10259,237 c 2.07792,-18.11231 2.44265,-43.95787 0.9737,-69 -0.88184,-15.03333 -2.00976,-29.23171 -2.50648,-31.55196 l -0.90314,-4.21862 -9.12696,8.6607 -9.12695,8.66071 2.29005,40.89125 2.29007,40.89125 6.83689,6.2909 c 3.7603,3.46 7.20428,6.31 7.65332,6.33333 0.44903,0.0233 1.1778,-3.10756 1.6195,-6.95756 z m -47.9935,-42.66667 c -0.44633,-19.25 -0.89321,-35.11473 -0.99304,-35.25496 -0.0999,-0.14022 -4.06678,-0.44022 -8.81545,-0.66666 -8.48607,-0.40466 -8.62967,-0.35462 -8.38487,2.92162 0.137,1.83334 1.90548,17.88334 3.92998,35.66667 l 3.68089,32.33333 h 5.69701 5.69702 z m 23.55758,1.49444 v -29.50554 l -8.32523,0.94189 c -4.57888,0.51804 -8.55412,1.17079 -8.83388,1.45055 -0.53892,0.53892 2.09227,41.34484 3.2854,50.952 l 0.70377,5.66666 h 6.58496 6.58498 z M 166.23628,138.06193 c 8.92996,-1.08086 22.60007,-2.37665 30.37803,-2.8795 14.9835,-0.96871 18.05286,-2.97855 7.34132,-4.80715 -14.55694,-2.48505 -30.23736,-14.62457 -37.97176,-29.39708 -2.1559,-4.117691 -4.0516,-7.354916 -4.21268,-7.193829 -0.1611,0.161085 -1.26443,4.996397 -2.45186,10.745139 -2.54678,12.32975 -7.24213,23.55347 -12.71437,30.3923 -4.86477,6.07968 -4.89917,6.82231 -0.27163,5.86438 2.01667,-0.41746 10.973,-1.64338 19.90295,-2.72426 z m -49.85987,-2.03469 c 14.72319,-5.57196 25.87803,-16.94565 29.77847,-30.36268 3.32427,-11.435093 2.06933,-30.527103 -2.70603,-41.168007 -11.67541,-26.0163 -40.87083,-32.796978 -72.782183,-16.90377 -13.742031,6.844113 -27.986903,20.90839 -31.283866,30.887252 -4.458317,13.493913 0.497154,26.716055 15.838183,42.259295 9.301733,9.42434 16.277449,13.97718 26.779016,17.47787 7.598139,2.53283 24.7912,1.43753 34.37641,-2.18996 z m 128.34346,-10.0601 c 15.63572,-3.99975 30.47609,-17.86528 34.79781,-32.511988 1.48368,-5.028356 1.95244,-10.553605 1.54841,-18.251264 -0.49177,-9.369592 -1.32545,-12.549208 -5.51061,-21.017301 -5.49896,-11.126391 -14.02,-19.817791 -24.51543,-25.005546 -5.40845,-2.67333 -8.39629,-3.152612 -19.73476,-3.165662 -12.5295,-0.01443 -13.9407,0.268926 -22.66666,4.55113 -18.44784,9.053152 -33.3258,28.852116 -34.9238,46.475142 -1.15618,12.750449 2.33218,21.812946 12.21173,31.725169 16.1378,16.1912 37.87657,22.551 58.79331,17.20032 z"
         id="path404" />
    </g>
  </g>
  <g
     inkscape:groupmode="layer"
     id="layer3"
     inkscape:label="gris"
     style="display:inline">
    <path
       style="display:inline;fill:#999999;stroke:none;stroke-width:1.33333"
       d="M 161.33333,85.333333 H 160 c -0.068,-8.263066 -1.46667,-16.3148 -4.60533,-24 C 125.97147,-10.717573 -10.56716,50.081867 34.986667,121.33333 40.506133,129.9664 47.6204,138.09733 56,144 v 1.33333 C -13.278907,205.464 2.59168,325.78133 77.333333,371.91333 151.964,417.97733 256.61733,391.488 322.66667,342.168 345.864,324.84667 369.944,301.87733 381.33333,274.66667 L 430.66667,300 440,280 348,248 c 5.5,-23.10133 5.06667,-53.76933 2.28667,-77.33333 -1.14534,-9.70267 -7.676,-33.68667 -3.356,-42.3004 3.06266,-6.1104 16.484,-9.54547 22.40266,-12.18107 C 388.96,107.4448 408.17333,97.588 428,89.333333 l -12,-20 L 388,88 C 371.94533,55.7704 332.83867,40.022533 298.66667,40 c 4.852,7.089067 18.89466,9.686667 26.66666,13.148133 14.40934,6.417334 26.616,14.7984 36.93334,26.851867 3.42,3.9956 10.87466,11.550133 10.65866,17.212933 -0.24533,6.464797 -13.67066,13.118137 -18.25866,16.686267 -17.93067,13.94653 -41.33334,21.13013 -41.33334,47.43413 L 296,162.66667 c -0.196,-16.50134 -11.57067,-5.80534 -20.90933,-12.03734 -4.152,-2.77066 -3.39734,-10.29066 -3.012,-14.60933 0.88933,-9.9772 14.36133,-15.8992 19.592,-24.02 14.10666,-21.901733 12.592,-52.918933 -3.53734,-73.2808 -40.348,-50.936693 -125.55066,-13.887867 -126.8,46.614133 M 224,25.733467 c 46.62,-6.717734 77.67333,56.211333 42.54667,88.532003 -8.45734,7.7808 -19.27867,11.8888 -30.54667,13.34866 -7.88933,1.02227 -16.47067,-0.3036 -24,-2.76026 -13.66,-4.4568 -27.55067,-13.00614 -34.16267,-26.187203 C 162.072,67.2376 192.64133,30.252267 224,25.733467 m -121.33333,13.4332 C 136.59733,37.475733 155.41733,73.971867 146.60933,104 140.244,125.69867 120.74813,138.43867 98.666667,139.88 70.19,141.73867 29.135733,109.85933 39.465067,78.666667 47.608533,54.0748 78.5648,40.367733 102.66667,39.166667 m 60,54.166666 c 8.94,21.466137 25.424,34.285997 48,38.666667 v 1.33333 l -68,8 13.24533,-24 6.75467,-23.999997 m 174.66666,39.999997 3.828,64 L 338.66667,244 c -22.88,-10.65467 -18.52667,-50.144 -18.668,-72 -0.0427,-6.75333 -3.204,-15.87867 -0.528,-22.28667 2.752,-6.58933 11.608,-13.46266 17.86266,-16.38 m -74.66666,4 L 266.78667,192 272,265.33333 c -32.62667,0.67334 -67.56933,5.87467 -100,9.71334 -10.868,1.28666 -33.54933,7.67333 -43.58133,2.816 C 122.46613,274.98 122.20307,257.896 121.2264,252 c -3.8572,-23.28667 -6.79933,-47.10933 -7.94453,-70.66667 -0.30027,-6.17866 -4.43667,-19.208 0.856,-24.088 12.1128,-11.16666 34.5848,-11.28933 49.86213,-11.964 32.90667,-1.45466 65.68533,-7.948 98.66667,-7.948 m -165.333337,20 C 97.452,200.308 104.38307,248.924 114.66667,290.66667 c 21.348,-6.31067 21.28666,9.716 21.33333,26.66666 h 9.33333 c -5.46,12.25067 -17.09666,23.06 -25.66253,33.33334 -3.03973,3.64533 -6.5984,9.69466 -11.6904,10.50533 -7.94547,1.26533 -19.334267,-7.13867 -25.313733,-11.51467 C 61.042133,333.82933 45.281733,311.38 35.270533,286.66667 14.7608,236.03733 35.534133,192.112 60,148 l 37.333333,9.33333 m 191.999997,1.33334 c 1.40534,17.80266 1.12534,35.45466 1.33867,53.33333 0.056,4.69467 3.59067,15.25867 -2.864,16.884 -8.97733,2.26 -8.26133,-9.92133 -8.93467,-15.55067 -2.21733,-18.528 -5.53733,-37.324 -5.54,-56 l 16,1.33334 m 24,8 c 0.003,18.596 5.35334,40.556 0,58.66666 l -12,-1.33333 -4,-56 16,-1.33333 m 1.33334,64 c 2.02933,13.11066 21.21866,22.43866 30.66666,30.66666 L 346.66667,256 c 21.82266,6.28667 9.64533,20.45467 -0.6,33.33333 -17.26934,21.70934 -40.78134,38.672 -64.73334,52.37334 -6.13066,3.50666 -17.98,13.00533 -25.33333,11.70133 -5.80533,-1.02933 -10.10533,-7.984 -13.71333,-12.07467 C 233.632,331.52133 222.604,323.42533 216,312 l 26.66667,-4 c 0,-7.348 -3.29867,-25.3 1.37066,-31.196 4.83867,-6.10933 32.29067,-3.47067 39.96267,-3.47067 -0.06,-7.27333 -5.66267,-27.924 0.804,-33.096 3.728,-2.98133 11.948,-2.70666 16.52933,-2.904 v -6.66666 h 13.33334 M 236,304 l -90.66667,4 -2.66666,-20 70.66666,-10.66133 21.80934,0.0507 L 236,304 m 9.33333,54.66667 L 230.912,360.896 220.444,348 198.66667,313.33333 c 15.656,0.508 39.73333,31.968 46.66666,45.33334 m -52,9.33333 -18.66666,1.33333 L 176,316 189.67733,316.056 192,330.66667 193.33333,368 m -22.66666,-52 c -6.912,16.32533 -32.41334,50.70933 -50.66667,49.33333 4.84667,-12.6 22.76267,-40.13733 34.78667,-46.62933 4.38533,-2.368 10.984,-1.79467 15.88,-2.704 m 30.66666,14.66667 20,33.33333 L 204,368 c -1.87733,-10.11467 -6.68,-27.74667 -2.66667,-37.33333 m -33.33333,4 c -0.29467,6.868 -0.0973,30.46133 -6.13333,34.51066 -4.01067,2.69067 -15.6,0.156 -20.53334,0.156 C 146.04,357.18 158.57067,343.628 168,334.66667 Z"
       id="path527" />
  </g>
  <g
     inkscape:groupmode="layer"
     id="layer1"
     inkscape:label="vector"
     style="display:inline">
    <path
       style="fill:none;stroke:#999999;stroke-width:1.33333"
       d="m 166.66667,88 c 1.51733,-12.001467 3.90666,-28.9668 13.95733,-41.333333 2.868,-3.530134 5.38267,-6.070934 8.71067,-8.9332 C 202.75467,26.1924 226.58533,19.478667 244,22.5648 c 20.47867,3.629067 37.984,17.4804 44.484,40.101867 3.736,13.0008 2.096,29.4884 -3.58667,41.333333 -2.9,6.04467 -6.80666,10.56413 -11.78533,15.18 -3.56267,3.3028 -8.72,9.158 -12.05733,10.80667 -5.03467,2.48666 -7.52534,1.66626 -13.05467,2.5936 -2.752,0.46133 -11.592,1.99173 -14.66667,2.0664 -4.64133,0.11466 -8.14266,0.81466 -13.33333,-0.39734 -5.80933,-1.3572 -6.81467,-3.79546 -12,-5.54466 -4.208,-1.41947 -10.52267,-3.42454 -14.66667,-5.94027 -14.964,-9.08373 -20.604,-20.69587 -26.66666,-34.7644 -5.80934,2.530667 -7.78,-0.2512 -11.96267,6.8632 -4.24933,7.22693 -3.23867,18.40387 -7.87733,26.47013 -1.69334,2.94654 -10.10667,13.02267 -10.212,15.99334 -0.16,4.56266 1.36933,7.09866 8.71866,7.24266 4.31734,0.084 11.552,-1.51333 16,-1.90266 12.19067,-1.068 33.068,-3.292 44,-4.00667 5.524,-0.36 7.88534,-1.99333 10.66667,-3.99333 M 133.33333,140 c -10.2216,2.796 -18.2996,8.188 -28,9.29067 -4.90706,0.55866 -7.227597,0.112 -11.999997,0.0387 C 83.9824,149.184 72.447867,145.51867 64,140.628 26.760267,119.0696 21.063333,73.2876 58.666667,48.932133 84.242,32.367067 130.83613,27.088 146.23467,58.666667 152.02133,70.5344 153.33333,80.800667 153.33333,92 M 298.66667,42.666667 c 16.32133,0.745866 48.18933,12.1964 67.98,32.019466 6.07066,6.080667 10.684,19.144534 17.63733,21.790267 3.348,1.273867 6.708,0.105733 10.38267,-1.4476 6.332,-2.676533 11.21066,-6.146133 17.33333,-9.695467 m -28,12 c -6.152,8.273337 -11.62667,11.447467 -25.33333,19.549337 -3.53334,2.08866 -9.02934,5.13453 -13.20267,8.38586 -2.496,1.94467 -3.65733,3.066 -4.068,6.752 -0.67733,6.07414 1.72,21.07147 2.37733,27.97947 1.812,19.03467 1.65067,38.20267 1.55867,57.33333 -0.032,6.724 -1.30933,18.016 -2.1,23.99734 -0.572,4.32666 -0.544,6.76 -0.56533,9.336 -3.37334,-0.736 -6.23867,-1.184 -10.66667,-4.17734 -5.07867,-3.432 -11.46,-8.10133 -12.98133,-14.50933 -1.36134,-5.728 -0.25334,-9.016 -0.372,-14.64667 -0.332,-15.6 -2.26534,-32.52133 -2.752,-48 -0.17334,-5.50133 -0.0267,-8.15466 0.108,-13.332 0.364,-14.02933 16.87866,-23.33413 22.664,-26.668 M 264,130.66667 c 0.82667,1.43373 3.80933,4.50133 3.996,16 0.0587,3.584 0.37867,7.42533 1.33733,10.66666 1.668,-0.49333 2.74934,-1.08666 6.7,-1.288 3.432,-0.17466 11.82267,-1.15066 14.65334,2.092 4.66,5.34134 2.27066,15.436 3.02666,21.86267 1.26934,10.77867 0.95334,14.508 0.95334,24 0,6.98133 3.116,18.348 1.09466,25.188 -1.29466,4.384 -5.28933,5.03867 -9.096,5.47333 -3.56533,0.408 -6.77333,-0.20533 -9.29333,3.35734 -3.58933,5.07066 -0.0307,14.592 -0.0413,19.31466 -0.007,3.74534 0.37066,7.268 -2.13467,10.24267 -2.12,2.516 -3.77067,2.61333 -7.19733,3.06533 -9.07467,1.196 -23.02134,0.988 -29.332,4.02534 0.26933,0.936 1.14133,2.824 1.08933,5.39333 -0.072,3.54933 -1.028,9.248 -1.084,13.27333 -0.0907,6.51334 0.66933,11.404 -5.41733,13.86267 -5.348,2.16 -20.59334,-1.548 -20.14534,6.31467 0.21467,3.768 3.13734,6.28533 5.63067,9.156 3.43733,3.95866 6.044,7.04533 9.37467,10.66666 5.12266,5.57067 12.372,13.23334 16.76666,18.66667 7.128,8.812 7.86934,11.14533 9.78534,13.33333 -10.736,8.21334 -16.44267,6.52534 -28,9.99467 -13.136,3.94267 -17.83067,4.66533 -28,4.672 -0.048,-5.74133 -2.30667,-9.39867 -2.66134,-42.66667 -0.0653,-6.15333 0.45867,-6.46133 0.0773,-12 -0.44934,-6.528 -0.404,-5.932 -2.74934,-13.33333 8.592,-2.54 9.308,-1.33333 18.66667,-1.33333 M 62.666667,141.33333 c -1.511734,1.656 -3.013867,2.78934 -7.538,9.336 -2.296267,3.32134 -7.835467,11.22534 -10.130667,14.664 -7.314,10.956 -15.358133,28.20134 -19.391067,41.33334 -2.415333,7.86533 -4.9116,18.864 -5.486533,26.66666 -0.3084,4.184 -0.02427,6.62534 -0.501067,10.66667 -0.557333,4.724 -1.156,9.95467 -0.833333,14.66667 0.9572,13.97733 5.260533,29.99866 12.210933,44 4.404,8.872 9.380534,18.55733 15.344667,26.66666 10.575867,14.38 24.421333,27.97067 40.325067,36.28667 4.212933,2.20267 15.775863,7.80533 19.993863,7.14933 9.60454,-1.49333 6.96974,-5.38266 10.2304,-11.436 1.67934,-3.11733 6.7288,-9.532 9.88374,-13.33333 12.60533,-15.19067 19.51333,-23.53067 22.55866,-33.33333 -2.604,-0.864 -6.532,-0.53334 -8.548,-4.42267 -4.88,-9.41467 1.436,-15.88267 -3.876,-22.77333 -2.1,-2.724 -5.54853,-1.95867 -8.90933,-2.19467 -3.9608,-0.27867 -7.10493,-0.21067 -9.13587,-5.42133 -3.0572,-7.84267 -3.0824,-17.856 -4.52666,-26.52134 -3.38734,-20.324 -5.63,-39.67733 -7.4444,-58.66666 -0.364,-3.80934 -0.76174,-11.12934 -1.17907,-14.66667 -0.42147,-3.572 -0.29907,-5.45733 -0.40027,-9.33333 -0.28693,-10.99334 -1.31013,-14.50267 -1.31373,-20 m 165.33333,6.66666 0.005,9.336 1.55466,23.99734 3.39334,33.33333 3.04666,12 m 17.33334,-69.33333 c 6.47066,-0.0173 13.128,-1.192 20,-1.33334 M 297.33333,228 c 6.68934,0.004 11.82667,1.16667 20,0 m 25.33334,22.66667 2.87866,1.60933 c 10.85067,4.2 19.78,10.108 22.45467,12.79867 0.488,0.49066 1.37867,1.828 4.24533,2.73866 4.70667,1.49467 7.628,0.70667 13.088,2.02134 3.16667,0.76133 7.99467,3.20266 10.66667,4.488 9.51467,4.57466 18.96,9.72933 29.33333,12.344 m -56,-16 c -3.05466,16.92933 -18.46133,30.48 -30.66666,42.66666 C 333.228,318.76267 329.568,322.22 324,326.66133 316.24,332.852 305.89733,340.04 297.33333,345.4 c -11.62266,7.276 -31.752,18.97467 -42.66666,19.93333 M 138.66667,284 c 13.268,-1.67867 29.236,-4.072 48,-6.28667 4.01066,-0.472 6.484,-0.248 10.66666,-0.432 10.69867,-0.47333 15.17334,-1.15066 24,-2.23466 7.96134,-0.97867 10.112,-1.248 16,-1.71334 m -86.66666,40 c 7.23466,0 15.25066,-0.78133 26.66666,-1.22133 3.06,-0.11733 6.18934,-0.11067 9.3,-0.112 2.96934,-10e-4 5.09067,0 6.7,0 m -20,1.33333 c -0.18933,8.91734 1.82534,9.828 -4.66,16.268 -2.12933,2.11334 -4.452,3.248 -6.52133,5.364 -4.52933,4.632 -20.37067,24.30667 -23.188,29.03467 -5.54933,9.316 -6.57387,11.39067 -9.63067,14.66667 l 13.33334,3.04666 30.66666,0.95334 c -3.564,-6.47867 -4.028,-5.54267 -3.99866,-16 0.012,-4.268 1.164,-14.62 1.89733,-20 1.04133,-7.652 0.76667,-7.76934 0.768,-14.66667 m 26.66667,-5.33333 c 1.66533,0.91066 3.14266,1.14933 5.888,4.304 4.44133,5.10133 16.46933,26.036 18.60666,30.36266 3.692,7.47334 4.94934,9.052 7.50534,12 m -121.33334,0 c 7.09294,4.10934 12.26174,5.168 20,5.33334 m 44,4 c 9.53867,0 16.39734,-1.176 24,-1.33334"
       id="path196" />
  </g>
</svg>
