<svg xmlns="http://www.w3.org/2000/svg" xmlns:xlink="http://www.w3.org/1999/xlink" viewBox="0,0,256,256" width="64px" height="64px" fill-rule="nonzero"><g fill="#ffffff" fill-rule="nonzero" stroke="none" stroke-width="1" stroke-linecap="butt" stroke-linejoin="miter" stroke-miterlimit="10" stroke-dasharray="" stroke-dashoffset="0" font-family="none" font-weight="none" font-size="none" text-anchor="none" style="mix-blend-mode: normal"><g transform="scale(3.55556,3.55556)"><path d="M36,12c13.234,0 24,10.766 24,24c0,13.234 -10.766,24 -24,24c-13.234,0 -24,-10.766 -24,-24c0,-13.234 10.766,-24 24,-24zM45.952,32.393c0.904,-0.653 1.689,-1.466 2.308,-2.394c-1.261,0.573 -2.656,0.728 -2.656,0.728c0,0 1.63,-0.943 2.033,-2.559c-0.893,0.53 -1.883,0.915 -2.937,1.123c-0.843,-0.899 -2.046,-1.461 -3.375,-1.461c-2.554,0 -4.624,2.071 -4.624,4.624c0,0.362 0.119,1.053 0.119,1.053c0,0 -5.581,0.034 -9.532,-4.832c0,0 -0.608,0.814 -0.625,2.326c-0.029,2.564 2.057,3.848 2.057,3.848c0,0 -1.049,0.028 -2.094,-0.578c0.094,3.972 3.71,4.593 3.71,4.593c0,0 -1.168,0.225 -2.088,0.08c0.589,1.837 2.296,3.175 4.32,3.212c-1.582,1.24 -3.576,1.98 -5.744,1.98c-0.372,0 -0.741,-0.022 -1.103,-0.065c1.074,1.162 4.477,2.077 7.089,2.077c8.506,0 13.157,-7.046 13.157,-13.157c-0.001,-0.2 -0.006,-0.399 -0.015,-0.598z"></path></g></g></svg>