<?xml version="1.0" encoding="UTF-8" standalone="no"?>
<!-- Created with Inkscape (http://www.inkscape.org/) -->

<svg
   version="1.1"
   id="svg2"
   width="194"
   height="260"
   viewBox="0 0 194 260"
   sodipodi:docname="logo-seventh-seal.png"
   inkscape:version="1.1.1 (3bf5ae0d25, 2021-09-20)"
   xmlns:inkscape="http://www.inkscape.org/namespaces/inkscape"
   xmlns:sodipodi="http://sodipodi.sourceforge.net/DTD/sodipodi-0.dtd"
   xmlns="http://www.w3.org/2000/svg"
   xmlns:svg="http://www.w3.org/2000/svg">
  <defs
     id="defs6" />
  <sodipodi:namedview
     id="namedview4"
     pagecolor="#ffffff"
     bordercolor="#666666"
     borderopacity="1.0"
     inkscape:pageshadow="2"
     inkscape:pageopacity="0.0"
     inkscape:pagecheckerboard="0"
     showgrid="false"
     inkscape:zoom="1.9038462"
     inkscape:cx="96.909091"
     inkscape:cy="108.9899"
     inkscape:window-width="1024"
     inkscape:window-height="709"
     inkscape:window-x="0"
     inkscape:window-y="0"
     inkscape:window-maximized="1"
     inkscape:current-layer="layer2" />
  <g
     inkscape:groupmode="layer"
     id="layer2"
     inkscape:label="vector 2"
     style="display:inline">
    <path
       id="path33"
       style="fill:#333333;fill-opacity:1;stroke-width:0.935175"
       d="m 102.72852,0.39453125 c -2.37523,-0.0163952 -4.917973,0.50698039 -4.917973,1.19726565 0,0.2294849 0.863089,1.6622578 1.917969,3.1835937 1.054884,1.5213359 1.641804,3.2426162 1.304684,3.8242188 -0.91233,1.5739916 -4.20838,1.2780545 -6.099606,-0.546875 -2.271908,-2.192263 -2.704179,-1.377354 -2.38086,4.4882816 l 0.277344,5.029296 2.40625,-2.02539 c 4.72589,-3.977005 7.402952,-1.950727 4.457031,3.373047 -1.035752,1.871768 -1.882812,3.594881 -1.882812,3.830078 0,0.235198 2.038768,0.427734 4.529293,0.427734 4.75173,0 5.9207,-1.42736 3.16797,-3.863281 -1.77809,-1.573474 -1.73929,-4.731866 0.0664,-5.470703 0.78412,-0.32083 2.60563,0.349875 4.05469,1.492187 l 2.63086,2.074219 0.57421,-2.433594 c 0.31512,-1.338371 0.28613,-4.055639 -0.0625,-6.037109 -0.55664,-3.1636938 -0.77032,-3.4028329 -1.75781,-1.9628906 -1.27493,1.8591016 -5.49029,3.8222466 -6.3164,2.9414062 -1.06676,-1.1374298 -0.52157,-3.8955988 1.24414,-6.2890625 l 1.79101,-2.4277343 -2.78515,-0.59375005 c -0.65432,-0.13953333 -1.42701,-0.20547243 -2.21875,-0.2109375 z M 34.230469,16.761719 c -0.954856,0.0861 -1.626953,0.76612 -1.626953,2.003906 0,0.79465 0.814326,1.910032 1.810546,2.478516 0.996221,0.568484 1.8125,1.657252 1.8125,2.419921 0,0.76267 -3.171593,4.185006 -7.046874,7.603516 C 13.925237,44.724007 4.6502499,61.9808 3.1660156,79.666016 2.4475539,88.226759 3.556163,88.716671 5.3574219,80.632812 7.1947774,72.386961 13.916783,58.908871 19.410156,52.455078 25.374427,45.448059 30.872444,40.976118 38.798828,36.689453 l 5.744141,-3.105469 6.029297,7.007813 c 3.316762,3.853988 6.365333,7.609855 6.773437,8.347656 0.408104,0.737802 7.615511,8.823745 16.015625,17.966797 l 15.271484,16.623047 -2.738281,1 c -6.337244,2.314034 -5.417223,8.465765 1.429688,9.560547 3.929139,0.628247 4.146178,0.824445 4.142578,3.742187 -0.0078,6.582299 -2.822514,21.093839 -5.951172,30.677739 -4.102049,12.56566 -5.380639,15.32608 -8.322266,17.96289 -1.937358,1.7366 -2.152124,2.35915 -1.224609,3.55078 0.919737,1.18164 0.696839,2.13461 -1.224609,5.23047 -3.452843,5.56328 -4.760512,14.2326 -3.003907,19.92187 1.243918,4.02881 1.239481,4.80482 -0.03906,7.8125 l -1.417969,3.33984 -15.443359,0.28711 c -8.493765,0.15826 12.677256,0.28743 47.046874,0.28711 34.36962,-3.3e-4 55.33524,-0.12942 46.58984,-0.28711 l -15.90234,-0.28711 -1.08984,-3.21484 c -0.90371,-2.66477 -0.83701,-3.85871 0.38476,-6.97656 2.10793,-5.37923 1.25063,-13.38083 -2.15039,-20.07617 -1.98662,-3.91091 -2.42414,-5.57509 -1.67578,-6.39063 0.74977,-0.81706 0.3744,-1.65057 -1.45313,-3.21875 -3.89825,-3.34505 -14.39625,-31.67491 -13.17968,-35.5664 0.17769,-0.56838 13.45379,13.21991 29.50195,30.64062 27.49554,29.8471 29.25415,31.56649 30.5,29.81055 0.72716,-1.02489 1.33381,-2.08317 1.34961,-2.35156 0.0158,-0.26841 -14.2341,-15.6922 -31.66797,-34.2754 -30.40756,-32.41219 -31.69727,-33.9353 -31.69727,-37.414058 v -3.626953 h 3.9629 c 4.65363,0 6.46949,-1.73217 5.61523,-5.361328 -0.38392,-1.631005 -1.66971,-2.973192 -3.72461,-3.888672 l -3.13672,-1.396485 v -9.033203 -9.033203 l 5.375,-7.417969 c 6.88825,-9.504146 8.80088,-14.554968 7.32227,-19.332031 -1.28328,-4.145989 -4.71997,-6.33789 -9.93555,-6.33789 -2.928,0 -3.66797,-0.350622 -3.66797,-1.738282 0,-3.425961 -1.86387,-4.05664 -12.00195,-4.05664 H 91.376955 L 90.42969,28.96875 c -0.862263,2.637361 -1.310911,2.898438 -5.003907,2.898438 -3.313287,0 -4.561338,0.539017 -6.814453,2.941406 -2.507243,2.673351 -2.718655,3.378925 -2.324219,7.755859 0.31738,3.521874 1.332522,6.168969 3.779297,9.853516 1.840071,2.770925 4.7505,7.149698 6.46875,9.730469 2.419172,3.633536 3.125,5.650297 3.125,8.933593 0,2.332008 -0.334578,4.238281 -0.742187,4.238281 -1.13373,10e-7 -40.011719,-42.113708 -40.011719,-43.341796 0,-0.592132 0.814326,-1.078125 1.810547,-1.078125 0.99622,0 1.810547,-0.199691 1.810547,-0.44336 0,-0.243669 -1.69984,-2.867212 -3.779297,-5.832031 -3.436845,-4.900135 -4.020734,-5.335881 -6.414063,-4.775391 -2.001041,0.468619 -3.147903,0.102901 -4.777343,-1.529297 -1.133646,-1.135563 -2.371317,-1.644695 -3.326172,-1.558593 z M 102.73242,132.64062 c 0.33641,0.005 0.62038,0.0413 0.82617,0.11133 0.82319,0.27999 2.1248,0.71925 2.89258,0.97657 1.18509,0.39718 1.09884,0.89767 -0.57422,3.31054 -3.46554,4.99795 -0.54814,7.27504 3.98828,3.11328 1.42845,-1.31044 1.74805,-1.32206 2.47657,-0.0937 1.06002,1.78684 1.08888,7.74847 0.0449,9.50586 -0.66483,1.11927 -1.13663,1.07943 -2.90625,-0.24218 -2.43492,-1.81848 -5.33008,-2.0819 -5.33008,-0.48438 0,0.6012 0.81807,2.50475 1.81836,4.23047 l 1.81836,3.13867 -2.04492,0.58399 c -3.01316,0.86092 -6.360305,0.68457 -8.154299,-0.42969 -1.480095,-0.91928 -1.456738,-1.15859 0.349609,-3.76367 1.122696,-1.61914 1.688038,-3.44941 1.353516,-4.37891 -0.517038,-1.43664 -0.896587,-1.38393 -3.791016,0.52344 -1.769623,1.16614 -3.502227,1.81766 -3.849609,1.44726 -0.7908,-0.84316 -0.836856,-9.78905 -0.05469,-10.62304 0.317405,-0.33843 1.94801,0.27442 3.623047,1.36328 1.675036,1.08886 3.351026,1.98237 3.724609,1.98437 1.416803,0.008 0.59941,-4.30768 -1.203125,-6.35351 l -1.880859,-2.13477 3.101563,-1.0918 c 1.279454,-0.4503 2.762244,-0.70964 3.771484,-0.69336 z" />
  </g>
</svg>
