<?xml version="1.0" encoding="UTF-8" standalone="no"?>
<!-- Created with Inkscape (http://www.inkscape.org/) -->

<svg
   xmlns:dc="http://purl.org/dc/elements/1.1/"
   xmlns:cc="http://creativecommons.org/ns#"
   xmlns:rdf="http://www.w3.org/1999/02/22-rdf-syntax-ns#"
   xmlns:svg="http://www.w3.org/2000/svg"
   xmlns="http://www.w3.org/2000/svg"
   xmlns:sodipodi="http://sodipodi.sourceforge.net/DTD/sodipodi-0.dtd"
   xmlns:inkscape="http://www.inkscape.org/namespaces/inkscape"
   version="1.1"
   id="svg10"
   width="157.75999"
   height="157.75999"
   viewBox="0 0 157.75999 157.75999"
   sodipodi:docname="arrow-up.svg"
   inkscape:version="0.92.1 r15371">
  <metadata
     id="metadata16">
    <rdf:RDF>
      <cc:Work
         rdf:about="">
        <dc:format>image/svg+xml</dc:format>
        <dc:type
           rdf:resource="http://purl.org/dc/dcmitype/StillImage" />
        <dc:title></dc:title>
      </cc:Work>
    </rdf:RDF>
  </metadata>
  <defs
     id="defs14" />
  <sodipodi:namedview
     pagecolor="#ffffff"
     bordercolor="#666666"
     borderopacity="1"
     objecttolerance="10"
     gridtolerance="10"
     guidetolerance="10"
     inkscape:pageopacity="0"
     inkscape:pageshadow="2"
     inkscape:window-width="1280"
     inkscape:window-height="657"
     id="namedview12"
     showgrid="false"
     inkscape:zoom="3.0933064"
     inkscape:cx="78.879997"
     inkscape:cy="78.879997"
     inkscape:window-x="-8"
     inkscape:window-y="-8"
     inkscape:window-maximized="1"
     inkscape:current-layer="layer1" />
  <g
     inkscape:groupmode="layer"
     id="layer1"
     inkscape:label="vector"
     style="display:inline">
    <path
       style="fill:#000000;stroke-width:0.31999999"
       d="M 73.599995,157.56737 C 56.418089,156.03596 42.367338,150.53213 29.279998,140.20676 26.396807,137.93204 19.827948,131.36318 17.553229,128.47999 8.5069483,117.01389 3.102581,104.65053 0.90740954,90.399994 -0.01112562,84.437083 -0.08102071,73.949563 0.76132158,68.479996 3.4684039,50.902141 10.277065,36.811534 21.919192,24.693515 35.348628,10.715128 52.397174,2.4667677 71.679995,0.6184381 76.514232,0.15505868 85.475038,0.39858452 90.239994,1.1228391 124.71083,6.3622703 151.39772,33.049156 156.63715,67.519996 c 0.72425,4.764956 0.96778,13.725762 0.5044,18.559999 -1.84833,19.282825 -10.09669,36.331365 -24.07508,49.760805 -14.29838,13.73687 -32.51585,21.28789 -52.426475,21.73044 -3.08,0.0685 -6.248,0.0667 -7.04,-0.004 z M 86.732158,145.78264 C 117.617,141.93152 141.80053,117.74611 145.59919,86.910996 146.11099,82.756532 146.02882,73.951915 145.4402,69.874012 141.11832,39.932916 117.82707,16.641667 87.885978,12.319795 83.808075,11.731167 75.003458,11.648998 70.848994,12.160798 47.433795,15.045383 27.192149,29.934643 17.457874,51.434 c -10.1560572,22.430917 -7.188032,48.343869 7.819709,68.27158 2.60736,3.46213 9.314696,10.16947 12.776824,12.77683 9.755196,7.34672 21.491106,12.06976 33.305588,13.40359 3.89056,0.43924 11.427046,0.38857 15.372163,-0.10336 z M 69.439996,90.884826 c 0,-16.018655 -0.107316,-29.12483 -0.23848,-29.12483 -0.131165,0 -5.819165,5.579309 -12.64,12.39846 l -12.401519,12.39846 v -8.799561 -8.799561 l 17.3611,-17.358908 17.3611,-17.358907 17.198898,17.201109 17.198895,17.201109 v 8.95736 8.957359 L 100.8017,74.081701 88.323406,61.606486 88.2417,90.723239 l -0.08171,29.116751 -9.359999,0.0848 -9.359999,0.0848 z"
       id="path20"
       inkscape:connector-curvature="0" />
  </g>
</svg>
