<svg xmlns="http://www.w3.org/2000/svg" xmlns:xlink="http://www.w3.org/1999/xlink" viewBox="0,0,256,256" width="64px" height="64px" fill-rule="nonzero"><g fill="#ffffff" fill-rule="nonzero" stroke="none" stroke-width="1" stroke-linecap="butt" stroke-linejoin="miter" stroke-miterlimit="10" stroke-dasharray="" stroke-dashoffset="0" font-family="none" font-weight="none" font-size="none" text-anchor="none" style="mix-blend-mode: normal"><g transform="scale(3.55556,3.55556)"><path d="M36,12c13.234,0 24,10.766 24,24c0,11.941 -8.767,21.87 -20.203,23.695v-17.714h5.445l0.814,-6.004h-6.259c0,0 0,-3.625 0,-4.546c0,-1.8 1.217,-2.725 2.51,-2.725c1.293,0 3.97,-0.037 3.97,-0.037v-5.808c0,0 -2.382,-0.275 -4.814,-0.275c-2.044,0 -4.295,0.576 -6.097,2.43c-1.833,1.886 -2.096,4.13 -2.096,7.527c0,0.983 0,3.435 0,3.435h-5.458v6.004h5.458v17.858c-11.952,-1.36 -21.27,-11.53 -21.27,-23.84c0,-13.234 10.766,-24 24,-24z"></path></g></g></svg>