<svg xmlns="http://www.w3.org/2000/svg" xmlns:xlink="http://www.w3.org/1999/xlink" viewBox="0,0,256,256" width="64px" height="64px" fill-rule="nonzero"><g fill="#ffffff" fill-rule="nonzero" stroke="none" stroke-width="1" stroke-linecap="butt" stroke-linejoin="miter" stroke-miterlimit="10" stroke-dasharray="" stroke-dashoffset="0" font-family="none" font-weight="none" font-size="none" text-anchor="none" style="mix-blend-mode: normal"><g transform="scale(3.55556,3.55556)"><path d="M35.75,14c-20.171,0 -21.75,1.579 -21.75,21.75v0.5c0,20.171 1.579,21.75 21.75,21.75h0.5c20.171,0 21.75,-1.579 21.75,-21.75v-0.5c0,-20.171 -1.579,-21.75 -21.75,-21.75zM48.99609,22.5c0.829,-0.002 1.50191,0.66809 1.50391,1.49609c0.002,0.829 -0.66709,1.50191 -1.49609,1.50391c-0.829,0.002 -1.50191,-0.66709 -1.50391,-1.49609c-0.002,-0.829 0.66709,-1.50191 1.49609,-1.50391zM35.97656,26c5.522,-0.013 10.01044,4.45456 10.02344,9.97656c0.013,5.522 -4.45456,10.01044 -9.97656,10.02344c-5.522,0.013 -10.01044,-4.45456 -10.02344,-9.97656c-0.013,-5.522 4.45456,-10.01044 9.97656,-10.02344zM35.99023,32c-2.209,0.006 -3.99523,1.80077 -3.99023,4.00977c0.006,2.209 1.80077,3.99523 4.00977,3.99023c2.209,-0.005 3.99523,-1.80077 3.99023,-4.00977c-0.006,-2.209 -1.80077,-3.99523 -4.00977,-3.99023z"></path></g></g></svg>